<svg xmlns="http://www.w3.org/2000/svg" xmlns:xlink="http://www.w3.org/1999/xlink" width="500" zoomAndPan="magnify" viewBox="0 0 375 374.999991" height="500" preserveAspectRatio="xMidYMid meet" version="1.0"><defs><g/></defs><rect x="-37.5" width="450" fill="#ffffff" y="-37.499999" height="449.999989" fill-opacity="1"/><rect x="-37.5" width="450" fill="#000000" y="-37.499999" height="449.999989" fill-opacity="1"/><g fill="#545454" fill-opacity="1"><g transform="translate(32.098139, 178.004419)"><g><path d="M 3.21875 -73.8125 C 7.875 -76.238281 12.71875 -78.289062 17.75 -79.96875 C 22.78125 -81.644531 27.816406 -83.132812 32.859375 -84.4375 L 36.0625 -85.28125 C 38.957031 -85.832031 41.847656 -86.363281 44.734375 -86.875 C 47.617188 -87.394531 50.554688 -87.75 53.546875 -87.9375 C 54.191406 -88.03125 54.816406 -88.078125 55.421875 -88.078125 C 56.035156 -88.078125 56.664062 -88.078125 57.3125 -88.078125 C 54.613281 -87.421875 51.863281 -86.742188 49.0625 -86.046875 C 46.269531 -85.347656 43.523438 -84.671875 40.828125 -84.015625 C 36.066406 -82.992188 31.332031 -81.898438 26.625 -80.734375 C 21.925781 -79.566406 17.242188 -78.191406 12.578125 -76.609375 C 10.992188 -76.140625 9.429688 -75.601562 7.890625 -75 C 6.359375 -74.394531 4.800781 -73.71875 3.21875 -72.96875 C 2.84375 -73.15625 2.84375 -73.4375 3.21875 -73.8125 Z M 81.640625 -16.921875 C 81.453125 -16.078125 80.988281 -15.609375 80.25 -15.515625 C 75.113281 -14.585938 69.957031 -13.445312 64.78125 -12.09375 C 59.613281 -10.738281 54.5625 -9.175781 49.625 -7.40625 C 47.300781 -6.570312 44.945312 -5.734375 42.5625 -4.890625 C 40.1875 -4.054688 37.835938 -3.125 35.515625 -2.09375 L 35.375 -2.09375 C 35.28125 -2 35.140625 -1.925781 34.953125 -1.875 C 34.765625 -1.832031 34.578125 -1.765625 34.390625 -1.671875 C 33.640625 -1.304688 32.867188 -0.984375 32.078125 -0.703125 C 31.285156 -0.421875 30.519531 -0.09375 29.78125 0.28125 L 29.640625 0.421875 C 29.078125 0.796875 28.023438 1.257812 26.484375 1.8125 C 24.953125 2.375 23.507812 2.84375 22.15625 3.21875 C 20.800781 3.59375 20.125 3.78125 20.125 3.78125 C 20.125 3.78125 19.960938 3.800781 19.640625 3.84375 C 19.316406 3.894531 19.015625 3.921875 18.734375 3.921875 C 17.617188 4.097656 16.5 4.09375 15.375 3.90625 C 14.257812 3.726562 13.421875 3.03125 12.859375 1.8125 C 12.578125 1.257812 12.53125 0.609375 12.71875 -0.140625 C 10.945312 -0.890625 9.570312 -2.171875 8.59375 -3.984375 C 7.613281 -5.796875 7.453125 -7.585938 8.109375 -9.359375 C 7.734375 -11.785156 7.425781 -14.234375 7.1875 -16.703125 C 6.957031 -19.171875 6.753906 -21.617188 6.578125 -24.046875 L 4.890625 -40.828125 L 3.21875 -56.75 C 1.445312 -58.707031 0.703125 -60.992188 0.984375 -63.609375 C 1.253906 -66.210938 2.414062 -68.398438 4.46875 -70.171875 C 4.5625 -70.359375 4.65625 -70.546875 4.75 -70.734375 C 4.84375 -70.921875 4.9375 -71.109375 5.03125 -71.296875 C 6.519531 -71.953125 8.007812 -72.554688 9.5 -73.109375 C 11 -73.671875 12.492188 -74.1875 13.984375 -74.65625 C 18.640625 -76.238281 23.320312 -77.609375 28.03125 -78.765625 C 32.738281 -79.929688 37.46875 -80.984375 42.21875 -81.921875 C 45.945312 -82.753906 49.628906 -83.660156 53.265625 -84.640625 C 56.898438 -85.617188 60.535156 -86.578125 64.171875 -87.515625 C 64.628906 -87.421875 65.113281 -87.347656 65.625 -87.296875 C 66.144531 -87.253906 66.59375 -87.140625 66.96875 -86.953125 L 69.203125 -86.109375 C 69.578125 -85.835938 69.945312 -85.535156 70.3125 -85.203125 C 70.6875 -84.878906 71.0625 -84.578125 71.4375 -84.296875 C 71.90625 -82.804688 72.226562 -81.335938 72.40625 -79.890625 C 72.59375 -78.453125 72.550781 -77.03125 72.28125 -75.625 L 65.28125 -73.53125 C 63.789062 -73.0625 62.226562 -72.59375 60.59375 -72.125 C 58.96875 -71.664062 57.363281 -71.203125 55.78125 -70.734375 C 55.40625 -70.546875 55.125 -70.453125 54.9375 -70.453125 C 53.164062 -69.992188 51.09375 -69.410156 48.71875 -68.703125 C 46.34375 -68.003906 43.96875 -67.304688 41.59375 -66.609375 C 39.21875 -65.910156 37.1875 -65.28125 35.5 -64.71875 C 33.820312 -64.164062 32.800781 -63.796875 32.4375 -63.609375 C 30.195312 -62.859375 27.957031 -62.0625 25.71875 -61.21875 C 23.488281 -60.382812 21.300781 -59.503906 19.15625 -58.578125 L 18.875 -58.296875 C 18.96875 -57.828125 19.082031 -57.054688 19.21875 -55.984375 C 19.363281 -54.910156 19.503906 -53.90625 19.640625 -52.96875 C 19.773438 -52.039062 19.84375 -51.441406 19.84375 -51.171875 C 23.757812 -52.847656 27.648438 -54.5 31.515625 -56.125 C 35.390625 -57.757812 39.332031 -59.320312 43.34375 -60.8125 C 45.570312 -61.375 47.828125 -61.957031 50.109375 -62.5625 C 52.398438 -63.164062 54.660156 -63.796875 56.890625 -64.453125 L 58.71875 -64.859375 C 59.550781 -65.046875 60.363281 -65.160156 61.15625 -65.203125 C 61.945312 -65.253906 62.765625 -65.328125 63.609375 -65.421875 C 65.378906 -65.515625 67.054688 -65.398438 68.640625 -65.078125 C 70.222656 -64.753906 71.484375 -63.75 72.421875 -62.0625 C 72.597656 -61.882812 72.707031 -61.703125 72.75 -61.515625 C 72.800781 -61.328125 72.875 -61.140625 72.96875 -60.953125 C 73.15625 -60.671875 73.296875 -60.390625 73.390625 -60.109375 C 73.484375 -59.828125 73.578125 -59.550781 73.671875 -59.28125 C 73.765625 -59.1875 73.859375 -59.140625 73.953125 -59.140625 C 75.253906 -58.484375 76.046875 -57.316406 76.328125 -55.640625 C 76.609375 -54.335938 76.398438 -53.007812 75.703125 -51.65625 C 75.003906 -50.300781 74 -49.300781 72.6875 -48.65625 C 71.195312 -48 69.679688 -47.597656 68.140625 -47.453125 C 66.609375 -47.316406 65.050781 -47.0625 63.46875 -46.6875 C 61.789062 -46.40625 60.085938 -46.101562 58.359375 -45.78125 C 56.640625 -45.457031 54.941406 -45.0625 53.265625 -44.59375 C 49.910156 -43.664062 46.578125 -42.664062 43.265625 -41.59375 C 39.953125 -40.519531 36.664062 -39.285156 33.40625 -37.890625 C 31.363281 -37.046875 29.382812 -36.15625 27.46875 -35.21875 C 25.5625 -34.289062 23.628906 -33.316406 21.671875 -32.296875 L 22.5 -23.203125 C 22.5 -23.109375 22.5 -23.035156 22.5 -22.984375 C 22.5 -22.941406 22.5 -22.828125 22.5 -22.640625 L 22.921875 -22.921875 C 24.503906 -23.671875 26.066406 -24.347656 27.609375 -24.953125 C 29.148438 -25.554688 30.664062 -26.1875 32.15625 -26.84375 L 44.03125 -31.453125 C 45.0625 -31.921875 46.113281 -32.335938 47.1875 -32.703125 C 48.257812 -33.078125 49.304688 -33.453125 50.328125 -33.828125 C 52.003906 -34.484375 53.679688 -35.113281 55.359375 -35.71875 C 57.035156 -36.320312 58.710938 -36.90625 60.390625 -37.46875 L 65.84375 -39.140625 C 66.59375 -39.328125 67.335938 -39.582031 68.078125 -39.90625 C 68.828125 -40.238281 69.570312 -40.5 70.3125 -40.6875 C 73.019531 -41.238281 75.234375 -41 76.953125 -39.96875 C 78.679688 -38.945312 80.054688 -37.457031 81.078125 -35.5 C 82.109375 -33.550781 82.878906 -31.410156 83.390625 -29.078125 C 83.898438 -26.742188 84.203125 -24.597656 84.296875 -22.640625 C 84.390625 -21.429688 84.179688 -20.335938 83.671875 -19.359375 C 83.160156 -18.378906 82.484375 -17.566406 81.640625 -16.921875 Z M 47.8125 -46.546875 C 45.664062 -45.898438 43.5 -45.25 41.3125 -44.59375 C 39.125 -43.9375 36.957031 -43.238281 34.8125 -42.5 C 33.414062 -42.125 32.039062 -41.726562 30.6875 -41.3125 C 29.332031 -40.894531 28.003906 -40.5 26.703125 -40.125 C 26.421875 -38.539062 25.675781 -37.234375 24.46875 -36.203125 C 27.914062 -37.972656 31.429688 -39.554688 35.015625 -40.953125 C 38.609375 -42.359375 42.128906 -43.757812 45.578125 -45.15625 C 46.316406 -45.53125 47.109375 -45.859375 47.953125 -46.140625 Z M 16.921875 1.8125 C 17.941406 1.90625 19.101562 1.925781 20.40625 1.875 C 21.71875 1.832031 22.460938 1.765625 22.640625 1.671875 C 22.828125 1.671875 22.96875 1.625 23.0625 1.53125 C 23.625 1.257812 24.179688 0.984375 24.734375 0.703125 C 25.296875 0.421875 25.8125 0.140625 26.28125 -0.140625 C 27.394531 -0.703125 28.488281 -1.257812 29.5625 -1.8125 C 30.632812 -2.375 31.6875 -2.9375 32.71875 -3.5 L 32.71875 -3.78125 C 31.5 -3.3125 30.238281 -2.84375 28.9375 -2.375 C 27.632812 -1.90625 26.332031 -1.441406 25.03125 -0.984375 C 23.71875 -0.515625 22.382812 -0.0234375 21.03125 0.484375 C 19.6875 1.003906 18.316406 1.445312 16.921875 1.8125 Z M 16.921875 1.8125 "/></g></g></g><g fill="#545454" fill-opacity="1"><g transform="translate(109.960552, 178.004419)"><g><path d="M 79.828125 -82.34375 C 79.640625 -81.78125 79.453125 -81.3125 79.265625 -80.9375 C 79.171875 -79.726562 78.9375 -78.515625 78.5625 -77.296875 C 78.1875 -76.085938 77.441406 -75.113281 76.328125 -74.375 C 75.859375 -74 75.160156 -73.71875 74.234375 -73.53125 C 73.859375 -73.15625 73.53125 -72.96875 73.25 -72.96875 C 69.707031 -72.320312 66.164062 -71.671875 62.625 -71.015625 C 59.082031 -70.359375 55.539062 -69.800781 52 -69.34375 C 52 -66.257812 51.972656 -63.179688 51.921875 -60.109375 C 51.878906 -57.035156 51.859375 -53.960938 51.859375 -50.890625 C 51.859375 -46.597656 51.878906 -42.332031 51.921875 -38.09375 C 51.972656 -33.851562 52 -29.585938 52 -25.296875 C 52.09375 -22.878906 52.1875 -20.4375 52.28125 -17.96875 C 52.375 -15.5 52.46875 -13.050781 52.5625 -10.625 C 52.46875 -8.945312 52.210938 -7.335938 51.796875 -5.796875 C 51.378906 -4.265625 50.515625 -2.984375 49.203125 -1.953125 L 49.203125 -2.234375 C 49.296875 -3.265625 49.34375 -4.265625 49.34375 -5.234375 C 49.34375 -6.210938 49.390625 -7.171875 49.484375 -8.109375 L 49.484375 -13.421875 C 49.203125 -12.210938 48.96875 -10.722656 48.78125 -8.953125 C 48.601562 -7.179688 48.28125 -5.59375 47.8125 -4.1875 C 47.34375 -2.695312 46.363281 -1.578125 44.875 -0.828125 C 43.382812 -0.0859375 41.894531 0.09375 40.40625 -0.28125 C 37.507812 -1.207031 35.59375 -3.046875 34.65625 -5.796875 C 33.726562 -8.546875 33.171875 -11.273438 32.984375 -13.984375 C 32.804688 -17.523438 32.738281 -21.113281 32.78125 -24.75 C 32.832031 -28.382812 32.898438 -31.972656 32.984375 -35.515625 C 33.171875 -39.054688 33.378906 -42.640625 33.609375 -46.265625 C 33.847656 -49.898438 34.015625 -53.535156 34.109375 -57.171875 L 34.390625 -63.328125 L 34.390625 -67.796875 C 33.453125 -67.796875 32.539062 -67.796875 31.65625 -67.796875 C 30.78125 -67.796875 29.875 -67.796875 28.9375 -67.796875 C 25.113281 -67.796875 21.382812 -67.9375 17.75 -68.21875 C 16.257812 -68.40625 14.789062 -68.660156 13.34375 -68.984375 C 11.90625 -69.316406 10.535156 -69.851562 9.234375 -70.59375 C 8.296875 -71.25 7.429688 -72.039062 6.640625 -72.96875 C 5.847656 -73.90625 5.21875 -74.929688 4.75 -76.046875 C 3.351562 -76.796875 2.304688 -77.9375 1.609375 -79.46875 C 0.910156 -81.007812 0.75 -82.617188 1.125 -84.296875 C 1.582031 -85.691406 2.441406 -86.945312 3.703125 -88.0625 C 4.960938 -89.1875 6.335938 -89.65625 7.828125 -89.46875 C 11.648438 -89.09375 15.472656 -88.789062 19.296875 -88.5625 C 23.117188 -88.332031 26.9375 -88.21875 30.75 -88.21875 C 30.75 -88.3125 30.769531 -88.378906 30.8125 -88.421875 C 30.863281 -88.460938 30.890625 -88.53125 30.890625 -88.625 C 23.347656 -89.09375 15.800781 -89.929688 8.25 -91.140625 C 8.0625 -91.140625 7.988281 -91.28125 8.03125 -91.5625 C 8.082031 -91.84375 8.203125 -91.9375 8.390625 -91.84375 C 18.171875 -91.289062 27.953125 -91.101562 37.734375 -91.28125 C 47.523438 -91.46875 57.269531 -91.984375 66.96875 -92.828125 C 67.707031 -93.015625 68.445312 -93.128906 69.1875 -93.171875 C 69.9375 -93.222656 70.640625 -93.296875 71.296875 -93.390625 C 71.671875 -93.390625 72.066406 -93.410156 72.484375 -93.453125 C 72.898438 -93.503906 73.296875 -93.484375 73.671875 -93.390625 C 74.691406 -93.566406 75.738281 -93.703125 76.8125 -93.796875 C 77.882812 -93.890625 78.9375 -93.984375 79.96875 -94.078125 C 80.613281 -94.171875 81.003906 -93.820312 81.140625 -93.03125 C 81.285156 -92.238281 80.988281 -91.75 80.25 -91.5625 C 79.78125 -91.5625 79.453125 -91.515625 79.265625 -91.421875 C 79.640625 -91.234375 79.921875 -91.050781 80.109375 -90.875 C 81.691406 -89.9375 82.457031 -88.460938 82.40625 -86.453125 C 82.363281 -84.453125 81.503906 -83.082031 79.828125 -82.34375 Z M 17.75 -71.578125 C 20.175781 -71.390625 22.644531 -71.390625 25.15625 -71.578125 C 22.363281 -71.859375 19.566406 -72.253906 16.765625 -72.765625 C 13.972656 -73.273438 11.226562 -73.953125 8.53125 -74.796875 C 9.644531 -73.765625 11.039062 -72.992188 12.71875 -72.484375 C 14.394531 -71.972656 16.070312 -71.671875 17.75 -71.578125 Z M 17.75 -71.578125 "/></g></g></g><g fill="#545454" fill-opacity="1"><g transform="translate(185.027148, 178.004419)"><g><path d="M 3.21875 -73.8125 C 7.875 -76.238281 12.71875 -78.289062 17.75 -79.96875 C 22.78125 -81.644531 27.816406 -83.132812 32.859375 -84.4375 L 36.0625 -85.28125 C 38.957031 -85.832031 41.847656 -86.363281 44.734375 -86.875 C 47.617188 -87.394531 50.554688 -87.75 53.546875 -87.9375 C 54.191406 -88.03125 54.816406 -88.078125 55.421875 -88.078125 C 56.035156 -88.078125 56.664062 -88.078125 57.3125 -88.078125 C 54.613281 -87.421875 51.863281 -86.742188 49.0625 -86.046875 C 46.269531 -85.347656 43.523438 -84.671875 40.828125 -84.015625 C 36.066406 -82.992188 31.332031 -81.898438 26.625 -80.734375 C 21.925781 -79.566406 17.242188 -78.191406 12.578125 -76.609375 C 10.992188 -76.140625 9.429688 -75.601562 7.890625 -75 C 6.359375 -74.394531 4.800781 -73.71875 3.21875 -72.96875 C 2.84375 -73.15625 2.84375 -73.4375 3.21875 -73.8125 Z M 81.640625 -16.921875 C 81.453125 -16.078125 80.988281 -15.609375 80.25 -15.515625 C 75.113281 -14.585938 69.957031 -13.445312 64.78125 -12.09375 C 59.613281 -10.738281 54.5625 -9.175781 49.625 -7.40625 C 47.300781 -6.570312 44.945312 -5.734375 42.5625 -4.890625 C 40.1875 -4.054688 37.835938 -3.125 35.515625 -2.09375 L 35.375 -2.09375 C 35.28125 -2 35.140625 -1.925781 34.953125 -1.875 C 34.765625 -1.832031 34.578125 -1.765625 34.390625 -1.671875 C 33.640625 -1.304688 32.867188 -0.984375 32.078125 -0.703125 C 31.285156 -0.421875 30.519531 -0.09375 29.78125 0.28125 L 29.640625 0.421875 C 29.078125 0.796875 28.023438 1.257812 26.484375 1.8125 C 24.953125 2.375 23.507812 2.84375 22.15625 3.21875 C 20.800781 3.59375 20.125 3.78125 20.125 3.78125 C 20.125 3.78125 19.960938 3.800781 19.640625 3.84375 C 19.316406 3.894531 19.015625 3.921875 18.734375 3.921875 C 17.617188 4.097656 16.5 4.09375 15.375 3.90625 C 14.257812 3.726562 13.421875 3.03125 12.859375 1.8125 C 12.578125 1.257812 12.53125 0.609375 12.71875 -0.140625 C 10.945312 -0.890625 9.570312 -2.171875 8.59375 -3.984375 C 7.613281 -5.796875 7.453125 -7.585938 8.109375 -9.359375 C 7.734375 -11.785156 7.425781 -14.234375 7.1875 -16.703125 C 6.957031 -19.171875 6.753906 -21.617188 6.578125 -24.046875 L 4.890625 -40.828125 L 3.21875 -56.75 C 1.445312 -58.707031 0.703125 -60.992188 0.984375 -63.609375 C 1.253906 -66.210938 2.414062 -68.398438 4.46875 -70.171875 C 4.5625 -70.359375 4.65625 -70.546875 4.75 -70.734375 C 4.84375 -70.921875 4.9375 -71.109375 5.03125 -71.296875 C 6.519531 -71.953125 8.007812 -72.554688 9.5 -73.109375 C 11 -73.671875 12.492188 -74.1875 13.984375 -74.65625 C 18.640625 -76.238281 23.320312 -77.609375 28.03125 -78.765625 C 32.738281 -79.929688 37.46875 -80.984375 42.21875 -81.921875 C 45.945312 -82.753906 49.628906 -83.660156 53.265625 -84.640625 C 56.898438 -85.617188 60.535156 -86.578125 64.171875 -87.515625 C 64.628906 -87.421875 65.113281 -87.347656 65.625 -87.296875 C 66.144531 -87.253906 66.59375 -87.140625 66.96875 -86.953125 L 69.203125 -86.109375 C 69.578125 -85.835938 69.945312 -85.535156 70.3125 -85.203125 C 70.6875 -84.878906 71.0625 -84.578125 71.4375 -84.296875 C 71.90625 -82.804688 72.226562 -81.335938 72.40625 -79.890625 C 72.59375 -78.453125 72.550781 -77.03125 72.28125 -75.625 L 65.28125 -73.53125 C 63.789062 -73.0625 62.226562 -72.59375 60.59375 -72.125 C 58.96875 -71.664062 57.363281 -71.203125 55.78125 -70.734375 C 55.40625 -70.546875 55.125 -70.453125 54.9375 -70.453125 C 53.164062 -69.992188 51.09375 -69.410156 48.71875 -68.703125 C 46.34375 -68.003906 43.96875 -67.304688 41.59375 -66.609375 C 39.21875 -65.910156 37.1875 -65.28125 35.5 -64.71875 C 33.820312 -64.164062 32.800781 -63.796875 32.4375 -63.609375 C 30.195312 -62.859375 27.957031 -62.0625 25.71875 -61.21875 C 23.488281 -60.382812 21.300781 -59.503906 19.15625 -58.578125 L 18.875 -58.296875 C 18.96875 -57.828125 19.082031 -57.054688 19.21875 -55.984375 C 19.363281 -54.910156 19.503906 -53.90625 19.640625 -52.96875 C 19.773438 -52.039062 19.84375 -51.441406 19.84375 -51.171875 C 23.757812 -52.847656 27.648438 -54.5 31.515625 -56.125 C 35.390625 -57.757812 39.332031 -59.320312 43.34375 -60.8125 C 45.570312 -61.375 47.828125 -61.957031 50.109375 -62.5625 C 52.398438 -63.164062 54.660156 -63.796875 56.890625 -64.453125 L 58.71875 -64.859375 C 59.550781 -65.046875 60.363281 -65.160156 61.15625 -65.203125 C 61.945312 -65.253906 62.765625 -65.328125 63.609375 -65.421875 C 65.378906 -65.515625 67.054688 -65.398438 68.640625 -65.078125 C 70.222656 -64.753906 71.484375 -63.75 72.421875 -62.0625 C 72.597656 -61.882812 72.707031 -61.703125 72.75 -61.515625 C 72.800781 -61.328125 72.875 -61.140625 72.96875 -60.953125 C 73.15625 -60.671875 73.296875 -60.390625 73.390625 -60.109375 C 73.484375 -59.828125 73.578125 -59.550781 73.671875 -59.28125 C 73.765625 -59.1875 73.859375 -59.140625 73.953125 -59.140625 C 75.253906 -58.484375 76.046875 -57.316406 76.328125 -55.640625 C 76.609375 -54.335938 76.398438 -53.007812 75.703125 -51.65625 C 75.003906 -50.300781 74 -49.300781 72.6875 -48.65625 C 71.195312 -48 69.679688 -47.597656 68.140625 -47.453125 C 66.609375 -47.316406 65.050781 -47.0625 63.46875 -46.6875 C 61.789062 -46.40625 60.085938 -46.101562 58.359375 -45.78125 C 56.640625 -45.457031 54.941406 -45.0625 53.265625 -44.59375 C 49.910156 -43.664062 46.578125 -42.664062 43.265625 -41.59375 C 39.953125 -40.519531 36.664062 -39.285156 33.40625 -37.890625 C 31.363281 -37.046875 29.382812 -36.15625 27.46875 -35.21875 C 25.5625 -34.289062 23.628906 -33.316406 21.671875 -32.296875 L 22.5 -23.203125 C 22.5 -23.109375 22.5 -23.035156 22.5 -22.984375 C 22.5 -22.941406 22.5 -22.828125 22.5 -22.640625 L 22.921875 -22.921875 C 24.503906 -23.671875 26.066406 -24.347656 27.609375 -24.953125 C 29.148438 -25.554688 30.664062 -26.1875 32.15625 -26.84375 L 44.03125 -31.453125 C 45.0625 -31.921875 46.113281 -32.335938 47.1875 -32.703125 C 48.257812 -33.078125 49.304688 -33.453125 50.328125 -33.828125 C 52.003906 -34.484375 53.679688 -35.113281 55.359375 -35.71875 C 57.035156 -36.320312 58.710938 -36.90625 60.390625 -37.46875 L 65.84375 -39.140625 C 66.59375 -39.328125 67.335938 -39.582031 68.078125 -39.90625 C 68.828125 -40.238281 69.570312 -40.5 70.3125 -40.6875 C 73.019531 -41.238281 75.234375 -41 76.953125 -39.96875 C 78.679688 -38.945312 80.054688 -37.457031 81.078125 -35.5 C 82.109375 -33.550781 82.878906 -31.410156 83.390625 -29.078125 C 83.898438 -26.742188 84.203125 -24.597656 84.296875 -22.640625 C 84.390625 -21.429688 84.179688 -20.335938 83.671875 -19.359375 C 83.160156 -18.378906 82.484375 -17.566406 81.640625 -16.921875 Z M 47.8125 -46.546875 C 45.664062 -45.898438 43.5 -45.25 41.3125 -44.59375 C 39.125 -43.9375 36.957031 -43.238281 34.8125 -42.5 C 33.414062 -42.125 32.039062 -41.726562 30.6875 -41.3125 C 29.332031 -40.894531 28.003906 -40.5 26.703125 -40.125 C 26.421875 -38.539062 25.675781 -37.234375 24.46875 -36.203125 C 27.914062 -37.972656 31.429688 -39.554688 35.015625 -40.953125 C 38.609375 -42.359375 42.128906 -43.757812 45.578125 -45.15625 C 46.316406 -45.53125 47.109375 -45.859375 47.953125 -46.140625 Z M 16.921875 1.8125 C 17.941406 1.90625 19.101562 1.925781 20.40625 1.875 C 21.71875 1.832031 22.460938 1.765625 22.640625 1.671875 C 22.828125 1.671875 22.96875 1.625 23.0625 1.53125 C 23.625 1.257812 24.179688 0.984375 24.734375 0.703125 C 25.296875 0.421875 25.8125 0.140625 26.28125 -0.140625 C 27.394531 -0.703125 28.488281 -1.257812 29.5625 -1.8125 C 30.632812 -2.375 31.6875 -2.9375 32.71875 -3.5 L 32.71875 -3.78125 C 31.5 -3.3125 30.238281 -2.84375 28.9375 -2.375 C 27.632812 -1.90625 26.332031 -1.441406 25.03125 -0.984375 C 23.71875 -0.515625 22.382812 -0.0234375 21.03125 0.484375 C 19.6875 1.003906 18.316406 1.445312 16.921875 1.8125 Z M 16.921875 1.8125 "/></g></g></g><g fill="#545454" fill-opacity="1"><g transform="translate(262.889557, 178.004419)"><g><path d="M 67.375 -52.984375 C 69.707031 -49.441406 70.800781 -45.289062 70.65625 -40.53125 C 70.519531 -35.78125 69.941406 -31.453125 68.921875 -27.546875 C 67.984375 -24.003906 66.628906 -20.503906 64.859375 -17.046875 C 63.085938 -13.597656 60.710938 -10.710938 57.734375 -8.390625 C 52.984375 -4.566406 47.414062 -2.023438 41.03125 -0.765625 C 34.644531 0.492188 28.515625 -0.0390625 22.640625 -2.375 C 16.960938 -4.707031 12 -8.269531 7.75 -13.0625 C 3.507812 -17.863281 0.738281 -23.34375 -0.5625 -29.5 C -0.84375 -30.988281 -1.070312 -32.5 -1.25 -34.03125 C -1.4375 -35.570312 -1.53125 -37.085938 -1.53125 -38.578125 C -1.4375 -43.703125 -0.785156 -48.710938 0.421875 -53.609375 C 1.628906 -58.503906 3.816406 -62.957031 6.984375 -66.96875 C 9.128906 -69.757812 11.625 -72.597656 14.46875 -75.484375 C 17.3125 -78.378906 20.175781 -80.851562 23.0625 -82.90625 C 25.769531 -84.851562 28.566406 -86.671875 31.453125 -88.359375 C 32.847656 -89.191406 34.382812 -89.84375 36.0625 -90.3125 C 37.738281 -90.78125 39.414062 -90.921875 41.09375 -90.734375 C 42.59375 -90.640625 43.757812 -90.125 44.59375 -89.1875 C 45.4375 -88.257812 45.859375 -87.1875 45.859375 -85.96875 C 46.316406 -85.132812 46.546875 -84.273438 46.546875 -83.390625 C 46.546875 -82.503906 46.5 -81.546875 46.40625 -80.515625 C 46.3125 -79.960938 46.265625 -78.800781 46.265625 -77.03125 C 46.265625 -75.257812 46.265625 -73.253906 46.265625 -71.015625 C 46.265625 -68.773438 46.285156 -66.65625 46.328125 -64.65625 C 46.378906 -62.65625 46.40625 -61.09375 46.40625 -59.96875 L 46.828125 -46.6875 C 46.828125 -45.476562 46.847656 -44.289062 46.890625 -43.125 C 46.941406 -41.957031 47.015625 -40.816406 47.109375 -39.703125 C 47.109375 -38.765625 47.128906 -37.804688 47.171875 -36.828125 C 47.222656 -35.859375 47.15625 -34.90625 46.96875 -33.96875 C 46.875 -33.59375 46.617188 -33.3125 46.203125 -33.125 C 45.785156 -32.945312 45.390625 -32.945312 45.015625 -33.125 C 44.546875 -33.5 44.265625 -33.734375 44.171875 -33.828125 C 43.984375 -33.734375 43.796875 -33.707031 43.609375 -33.75 C 43.429688 -33.800781 43.25 -33.828125 43.0625 -33.828125 C 42.125 -34.109375 41.351562 -34.570312 40.75 -35.21875 C 40.144531 -35.875 39.609375 -36.625 39.140625 -37.46875 C 38.859375 -37.9375 38.644531 -38.398438 38.5 -38.859375 C 38.363281 -39.328125 38.207031 -39.75 38.03125 -40.125 L 37.609375 -40.125 L 37.609375 -39.703125 C 38.066406 -38.117188 38.804688 -36.460938 39.828125 -34.734375 C 40.859375 -33.015625 42.398438 -32.34375 44.453125 -32.71875 C 45.484375 -32.894531 46.207031 -32.65625 46.625 -32 C 47.039062 -31.351562 47.128906 -30.65625 46.890625 -29.90625 C 46.660156 -29.164062 46.035156 -28.75 45.015625 -28.65625 C 43.242188 -28.46875 41.492188 -28.882812 39.765625 -29.90625 C 38.046875 -30.9375 36.8125 -32.289062 36.0625 -33.96875 C 35.132812 -36.113281 34.597656 -38.328125 34.453125 -40.609375 C 34.316406 -42.890625 34.203125 -45.148438 34.109375 -47.390625 L 33.265625 -74.375 C 32.992188 -74.1875 32.71875 -73.972656 32.4375 -73.734375 C 32.15625 -73.503906 31.828125 -73.296875 31.453125 -73.109375 C 26.703125 -69.472656 22.972656 -65.28125 20.265625 -60.53125 C 17.566406 -55.78125 15.65625 -50.421875 14.53125 -44.453125 C 14.445312 -43.890625 14.378906 -43.539062 14.328125 -43.40625 C 14.285156 -43.269531 14.265625 -42.96875 14.265625 -42.5 C 14.171875 -42.125 14.125 -41.75 14.125 -41.375 C 14.125 -41.007812 14.125 -40.640625 14.125 -40.265625 C 14.03125 -38.585938 14.117188 -36.953125 14.390625 -35.359375 C 14.671875 -33.773438 15.046875 -32.191406 15.515625 -30.609375 C 16.816406 -26.515625 18.769531 -22.789062 21.375 -19.4375 C 23.988281 -16.082031 27.582031 -14.265625 32.15625 -13.984375 C 32.4375 -13.984375 32.738281 -13.957031 33.0625 -13.90625 C 33.382812 -13.863281 33.6875 -13.84375 33.96875 -13.84375 C 39.375 -14.03125 43.988281 -15.800781 47.8125 -19.15625 C 49.394531 -20.644531 50.601562 -22.179688 51.4375 -23.765625 C 52.75 -26.003906 53.585938 -28.40625 53.953125 -30.96875 C 54.328125 -33.53125 54.46875 -36.019531 54.375 -38.4375 C 54.28125 -39.5625 54.1875 -40.660156 54.09375 -41.734375 C 54.007812 -42.804688 53.734375 -43.804688 53.265625 -44.734375 C 52.328125 -46.785156 52.066406 -48.859375 52.484375 -50.953125 C 52.910156 -53.046875 54.148438 -54.703125 56.203125 -55.921875 C 58.160156 -57.128906 60.207031 -57.40625 62.34375 -56.75 C 64.488281 -56.101562 66.164062 -54.847656 67.375 -52.984375 Z M 36.0625 -76.328125 C 35.414062 -75.765625 34.671875 -75.253906 33.828125 -74.796875 C 34.015625 -72.460938 34.25 -70.128906 34.53125 -67.796875 C 34.8125 -65.472656 35.046875 -63.144531 35.234375 -60.8125 L 35.921875 -60.8125 C 35.828125 -63.414062 35.78125 -66 35.78125 -68.5625 C 35.78125 -71.132812 35.875 -73.722656 36.0625 -76.328125 Z M 53.125 -45.015625 C 53.125 -45.109375 53.097656 -45.15625 53.046875 -45.15625 C 53.003906 -45.15625 52.984375 -45.203125 52.984375 -45.296875 C 52.984375 -45.296875 53.003906 -45.269531 53.046875 -45.21875 C 53.097656 -45.175781 53.125 -45.109375 53.125 -45.015625 Z M 53.265625 -44.734375 C 53.171875 -44.828125 53.125 -44.921875 53.125 -45.015625 C 53.125 -44.921875 53.144531 -44.875 53.1875 -44.875 C 53.238281 -44.875 53.265625 -44.828125 53.265625 -44.734375 Z M 53.265625 -44.734375 "/></g></g></g><path stroke-linecap="butt" transform="matrix(1.353906, 0, 0, 1.353906, -14.335922, 54.388626)" fill="none" stroke-linejoin="miter" d="M 42.042711 48.469476 C 45.487606 46.689325 49.068104 45.177495 52.78132 43.933986 C 56.494536 42.690477 60.219293 41.588342 63.94982 40.630465 L 66.318546 40.001497 C 68.453573 39.597573 70.5886 39.21096 72.720742 38.841658 C 74.855769 38.455045 77.025418 38.192494 79.226804 38.059777 C 79.697087 37.990532 80.158714 37.958796 80.611686 37.958796 C 81.067544 37.958796 81.529171 37.958796 81.999454 37.958796 C 80.017341 38.429079 77.991951 38.925328 75.923282 39.444659 C 73.857499 39.966875 71.823453 40.463125 69.824029 40.933408 C 66.30989 41.689323 62.815947 42.505826 59.33643 43.377148 C 55.856913 44.236929 52.403363 45.243854 48.975779 46.403693 C 47.798629 46.755684 46.638789 47.159608 45.496261 47.61258 C 44.368159 48.051126 43.216976 48.547376 42.042711 49.101329 C 41.771505 48.965726 41.771505 48.757993 42.042711 48.469476 Z M 99.974074 90.494887 C 99.838471 91.118084 99.495135 91.46142 98.941182 91.530664 C 95.158722 92.217335 91.353181 93.06846 87.521673 94.075385 C 83.704591 95.067884 79.974063 96.219068 76.327206 97.528936 C 74.613414 98.152133 72.873656 98.772445 71.107931 99.395642 C 69.359517 100.015954 67.622643 100.70551 65.89154 101.461425 L 65.790559 101.461425 C 65.721315 101.530669 65.620334 101.579717 65.487616 101.614339 C 65.352013 101.646076 65.219295 101.698009 65.083692 101.764368 C 64.529739 102.032689 63.958475 102.277929 63.3699 102.497202 C 62.781325 102.696278 62.210061 102.932863 61.656108 103.201184 L 61.555127 103.302165 C 61.151203 103.587797 60.377977 103.934017 59.235449 104.335056 C 58.107347 104.756291 57.042719 105.099626 56.032909 105.370833 C 55.04041 105.656465 54.547045 105.797838 54.547045 105.797838 C 54.547045 105.797838 54.420098 105.815149 54.166202 105.849771 C 53.932504 105.881508 53.713231 105.898819 53.511269 105.898819 C 52.688995 106.034422 51.858065 106.025767 51.015595 105.872853 C 50.193321 105.740135 49.578779 105.226574 49.174855 104.335056 C 48.975779 103.934017 48.941157 103.455079 49.073874 102.89824 C 47.764006 102.344288 46.748426 101.395066 46.024248 100.050576 C 45.302955 98.706086 45.184663 97.387562 45.672257 96.09212 C 45.386625 94.294658 45.158696 92.488541 44.991356 90.673768 C 44.824016 88.841684 44.671102 87.024026 44.538384 85.226564 L 43.277564 72.849177 L 42.042711 61.074791 C 40.729958 59.62932 40.18466 57.941495 40.403933 56.00843 C 40.605895 54.092676 41.462791 52.479865 42.974621 51.167112 C 43.04098 51.034394 43.110224 50.898791 43.176583 50.766073 C 43.242942 50.613159 43.309301 50.471785 43.378545 50.336182 C 44.486451 49.848588 45.588587 49.404272 46.679182 49.000348 C 47.789973 48.579113 48.897879 48.201155 50.00867 47.866475 C 53.436254 46.689325 56.889805 45.673745 60.369322 44.816849 C 63.848839 43.957068 67.342782 43.183841 70.856921 42.497171 C 73.61226 41.873974 76.327206 41.201729 78.998875 40.480436 C 81.687855 39.756258 84.376836 39.04939 87.065816 38.36272 C 87.420692 38.429079 87.781338 38.478126 88.15064 38.512748 C 88.537253 38.547371 88.866163 38.631041 89.134484 38.763758 L 90.796343 39.395611 C 91.067549 39.597573 91.33587 39.822616 91.604191 40.076512 C 91.889823 40.31021 92.166799 40.529484 92.43512 40.731446 C 92.789996 41.839351 93.032351 42.932832 93.167954 44.009001 C 93.300672 45.067859 93.268935 46.109406 93.066973 47.133642 L 87.89963 48.697405 C 86.788839 49.03497 85.629 49.378305 84.420113 49.730296 C 83.225652 50.067861 82.042732 50.402541 80.865582 50.740106 C 80.597261 50.890135 80.395299 50.968035 80.259695 50.968035 C 78.949828 51.302715 77.412031 51.732605 75.646306 52.251936 C 73.897892 52.774152 72.143707 53.293483 70.377982 53.815699 C 68.629568 54.320604 67.135049 54.782232 65.89154 55.200582 C 64.662457 55.604506 63.906542 55.872827 63.62091 56.00843 C 61.973477 56.562383 60.320274 57.150958 58.65553 57.774155 C 57.008097 58.394467 55.395286 59.049401 53.814212 59.738957 L 53.61225 59.940919 C 53.681494 60.278484 53.765164 60.849748 53.866145 61.654711 C 53.967126 62.445248 54.068107 63.183852 54.166202 63.873408 C 54.284495 64.562964 54.345083 65.00728 54.345083 65.209242 C 57.236025 63.965733 60.109656 62.748191 62.965976 61.55373 C 65.822296 60.344843 68.730549 59.185004 71.68785 58.077098 C 73.335283 57.673174 75.000027 57.243283 76.679197 56.790311 C 78.378564 56.337339 80.049078 55.872827 81.696511 55.402544 L 83.032345 55.076519 C 83.655543 54.940916 84.258543 54.857246 84.847119 54.822624 C 85.435694 54.790887 86.04158 54.738954 86.661892 54.672595 C 87.974645 54.606236 89.209498 54.698562 90.369337 54.949572 C 91.546487 55.186156 92.478398 55.916104 93.167954 57.142302 C 93.300672 57.295216 93.387227 57.43659 93.418964 57.572193 C 93.453586 57.704911 93.502634 57.840514 93.571878 57.976117 C 93.704596 58.178079 93.805577 58.385811 93.871936 58.605084 C 93.94118 58.807046 94.016194 59.009008 94.099864 59.21097 C 94.166223 59.277329 94.235467 59.311951 94.301826 59.311951 C 95.259703 59.799545 95.839623 60.665097 96.041585 61.908606 C 96.260858 62.866483 96.107944 63.850326 95.588613 64.857251 C 95.066397 65.84975 94.327793 66.588354 93.369916 67.075948 C 92.259125 67.546231 91.133908 67.840519 89.99138 67.958811 C 88.866163 68.059792 87.72075 68.244443 86.563796 68.512764 C 85.317401 68.714726 84.059467 68.942655 82.781336 69.193665 C 81.503204 69.427363 80.25104 69.715881 79.024842 70.050561 C 76.537824 70.740117 74.065232 71.487376 71.612836 72.295224 C 69.174866 73.082876 66.757092 73.991705 64.353744 75.015941 C 62.839029 75.639138 61.376247 76.294072 59.965398 76.983628 C 58.554549 77.673184 57.126389 78.394477 55.680918 79.150392 L 56.283919 85.858416 C 56.283919 85.924775 56.283919 85.973823 56.283919 86.008445 C 56.283919 86.043067 56.283919 86.126737 56.283919 86.259455 L 56.612828 86.057493 C 57.772667 85.50354 58.923851 85.007291 60.066379 84.57163 C 61.208907 84.118658 62.328353 83.654145 63.418948 83.183862 L 72.192755 79.756278 C 72.94867 79.421598 73.721896 79.118655 74.512433 78.847449 C 75.317396 78.561817 76.099278 78.284841 76.855193 78.01652 C 78.084276 77.528926 79.31913 77.067298 80.562639 76.631637 C 81.806148 76.17578 83.041001 75.740119 84.267199 75.318884 L 88.300669 74.084031 C 88.857507 73.948427 89.41146 73.763776 89.965413 73.530078 C 90.519366 73.276182 91.067549 73.082876 91.604191 72.950158 C 93.603615 72.528923 95.242392 72.704918 96.520523 73.478144 C 97.798654 74.234059 98.814235 75.336195 99.57015 76.781666 C 100.326065 78.227137 100.888673 79.808211 101.26086 81.522003 C 101.647473 83.235795 101.872517 84.813984 101.941761 86.259455 C 102.00812 87.168284 101.849435 87.981903 101.462822 88.706081 C 101.090635 89.427374 100.597271 90.024604 99.974074 90.494887 Z M 74.991372 68.613745 C 73.410298 69.101339 71.806142 69.588933 70.17602 70.076527 C 68.563209 70.54681 66.964824 71.060371 65.386635 71.614324 C 64.345088 71.882645 63.326623 72.176932 62.337009 72.497186 C 61.34451 72.797244 60.360666 73.082876 59.385478 73.354082 C 59.183516 74.528347 58.638219 75.49488 57.746701 76.250795 C 60.285652 74.940927 62.882306 73.772432 65.536664 72.748196 C 68.193907 71.706649 70.790562 70.673758 73.326628 69.646636 C 73.880581 69.378315 74.469156 69.135961 75.092353 68.916688 Z M 52.175434 104.335056 C 52.931349 104.4043 53.788245 104.418726 54.746122 104.386989 C 55.703999 104.352367 56.260837 104.303319 56.410866 104.234075 C 56.546469 104.234075 56.64745 104.202338 56.713809 104.133094 C 57.117733 103.934017 57.530313 103.7234 57.948663 103.504127 C 58.369898 103.302165 58.747855 103.100202 59.082535 102.89824 C 59.907694 102.479891 60.712657 102.067311 61.503194 101.663387 C 62.293731 101.245037 63.066957 100.832458 63.822872 100.428533 L 63.822872 100.200605 C 62.931354 100.555481 62.008099 100.907472 61.050222 101.259463 C 60.092345 101.597028 59.125813 101.931708 58.150625 102.269273 C 57.192748 102.621264 56.208904 102.98191 55.201979 103.354098 C 54.20948 103.740711 53.202555 104.066735 52.175434 104.335056 Z M 156.148367 42.168261 C 156.012764 42.589496 155.871391 42.932832 155.718476 43.201153 C 155.652118 44.109982 155.484778 45.00727 155.213571 45.898788 C 154.94525 46.790306 154.391298 47.511599 153.551713 48.068437 C 153.214147 48.336758 152.703472 48.547376 152.013916 48.697405 C 151.74271 48.965726 151.500355 49.101329 151.281082 49.101329 C 148.675772 49.588923 146.064692 50.076517 143.442071 50.564111 C 140.81945 51.034394 138.205484 51.438318 135.600174 51.772998 C 135.600174 54.058054 135.585748 56.337339 135.551126 58.605084 C 135.516504 60.872829 135.499193 63.143459 135.499193 65.411204 C 135.499193 68.570467 135.516504 71.72396 135.551126 74.865912 C 135.585748 77.990553 135.600174 81.144046 135.600174 84.32062 C 135.669418 86.100771 135.735777 87.906888 135.802136 89.738972 C 135.87138 91.553745 135.937739 93.362748 136.004098 95.16021 C 135.937739 96.386408 135.744433 97.572213 135.424179 98.714741 C 135.121236 99.857269 134.492268 100.806491 133.534391 101.562406 L 133.534391 101.337363 C 133.60075 100.578562 133.635372 99.839958 133.635372 99.118666 C 133.635372 98.394487 133.669994 97.690506 133.736353 97.000949 L 133.736353 93.091542 C 133.534391 93.98306 133.358396 95.085195 133.205482 96.395063 C 133.072764 97.704931 132.83618 98.873426 132.5015 99.900547 C 132.146624 101.008453 131.416675 101.839382 130.305884 102.396221 C 129.215289 102.932863 128.121809 103.068466 127.031214 102.797259 C 124.896187 102.110589 123.482453 100.748788 122.795782 98.714741 C 122.106226 96.680695 121.693646 94.66396 121.558043 92.664536 C 121.408014 90.059226 121.350311 87.410639 121.382048 84.721659 C 121.433981 82.032679 121.491684 79.386976 121.558043 76.781666 C 121.693646 74.159045 121.843675 71.504687 122.013901 68.815707 C 122.18124 66.126727 122.299533 63.446402 122.365891 60.774733 L 122.59382 56.236358 L 122.59382 52.90687 C 121.904264 52.90687 121.232019 52.90687 120.577085 52.90687 C 119.922151 52.90687 119.249906 52.90687 118.56035 52.90687 C 115.735767 52.90687 112.980428 52.805889 110.291448 52.603927 C 109.197968 52.471209 108.113143 52.286558 107.039859 52.049974 C 105.981001 51.798964 104.962536 51.403696 103.987348 50.867054 C 103.297792 50.37946 102.660169 49.790885 102.071594 49.101329 C 101.50033 48.411773 101.038702 47.655858 100.686711 46.833584 C 99.65959 46.276746 98.886364 45.437161 98.367033 44.311944 C 97.844817 43.169416 97.726525 41.974955 98.012157 40.731446 C 98.349722 39.70721 98.97869 38.781069 99.90483 37.958796 C 100.845396 37.119211 101.860976 36.77299 102.954456 36.925904 C 105.779039 37.194225 108.600737 37.413498 111.42532 37.580838 C 114.249903 37.748178 117.071601 37.831848 119.896184 37.831848 C 119.896184 37.765489 119.913496 37.713556 119.945232 37.681819 C 119.979854 37.647197 119.997166 37.598149 119.997166 37.528905 C 114.417243 37.194225 108.845977 36.571028 103.283366 35.665084 C 103.130452 35.665084 103.072748 35.564103 103.104485 35.362141 C 103.156418 35.160179 103.248744 35.09382 103.384347 35.160179 C 110.608817 35.581414 117.836172 35.722787 125.063527 35.587184 C 132.290882 35.437155 139.483615 35.050542 146.644611 34.430231 C 147.198564 34.294627 147.743862 34.210957 148.283389 34.176335 C 148.837342 34.144599 149.356673 34.092665 149.844267 34.026306 C 150.112588 34.026306 150.39822 34.008995 150.701163 33.974373 C 151.021417 33.942636 151.32436 33.957062 151.609992 34.026306 C 152.365907 33.890703 153.139133 33.789722 153.92967 33.723363 C 154.720207 33.639693 155.493433 33.564679 156.249348 33.495435 C 156.736942 33.429076 157.03123 33.688741 157.129325 34.277316 C 157.230306 34.865891 157.005263 35.226538 156.45131 35.362141 C 156.113745 35.362141 155.871391 35.393878 155.718476 35.463122 C 156.004108 35.59584 156.214726 35.740098 156.350329 35.890127 C 157.524594 36.579683 158.095858 37.664508 158.064121 39.144601 C 158.029499 40.621809 157.391876 41.631619 156.148367 42.168261 Z M 110.291448 50.13422 C 112.08891 50.269823 113.912338 50.269823 115.761733 50.13422 C 113.693065 49.932258 111.627282 49.646626 109.558614 49.277324 C 107.510142 48.890711 105.484752 48.385806 103.482443 47.765494 C 104.307602 48.521409 105.331838 49.092673 106.558036 49.479286 C 107.80443 49.848588 109.047939 50.067861 110.291448 50.13422 Z M 154.994298 48.469476 C 158.442079 46.689325 162.019692 45.177495 165.735793 43.933986 C 169.449009 42.690477 173.17088 41.588342 176.904292 40.630465 L 179.273018 40.001497 C 181.408045 39.597573 183.543073 39.21096 185.675214 38.841658 C 187.810241 38.455045 189.979891 38.192494 192.181277 38.059777 C 192.65156 37.990532 193.113187 37.958796 193.566159 37.958796 C 194.022016 37.958796 194.483644 37.958796 194.953927 37.958796 C 192.968929 38.429079 190.946423 38.925328 188.877755 39.444659 C 186.811972 39.966875 184.777926 40.463125 182.775617 40.933408 C 179.264363 41.689323 175.767535 42.505826 172.290903 43.377148 C 168.811386 44.236929 165.357835 45.243854 161.927366 46.403693 C 160.753101 46.755684 159.593262 47.159608 158.450734 47.61258 C 157.322632 48.051126 156.171448 48.547376 154.994298 49.101329 C 154.725977 48.965726 154.725977 48.757993 154.994298 48.469476 Z M 212.928546 90.494887 C 212.792943 91.118084 212.449608 91.46142 211.895655 91.530664 C 208.113195 92.217335 204.307653 93.06846 200.47326 94.075385 C 196.659063 95.067884 192.928536 96.219068 189.281679 97.528936 C 187.567887 98.152133 185.828129 98.772445 184.062403 99.395642 C 182.313989 100.015954 180.574231 100.70551 178.843128 101.461425 L 178.742147 101.461425 C 178.675788 101.530669 178.574807 101.579717 178.442089 101.614339 C 178.306486 101.646076 178.170883 101.698009 178.038165 101.764368 C 177.484212 102.032689 176.910063 102.277929 176.324373 102.497202 C 175.735798 102.696278 175.164534 102.932863 174.607696 103.201184 L 174.506715 103.302165 C 174.105676 103.587797 173.33245 103.934017 172.189922 104.335056 C 171.06182 104.756291 169.994306 105.099626 168.987381 105.370833 C 167.994882 105.656465 167.498633 105.797838 167.498633 105.797838 C 167.498633 105.797838 167.37457 105.815149 167.120675 105.849771 C 166.886976 105.881508 166.667703 105.898819 166.465741 105.898819 C 165.643467 106.034422 164.809653 106.025767 163.970068 105.872853 C 163.147794 105.740135 162.533252 105.226574 162.129328 104.335056 C 161.927366 103.934017 161.895629 103.455079 162.028347 102.89824 C 160.718479 102.344288 159.700013 101.395066 158.978721 100.050576 C 158.257428 98.706086 158.139136 97.387562 158.62673 96.09212 C 158.341098 94.294658 158.113169 92.488541 157.945829 90.673768 C 157.778489 88.841684 157.625575 87.024026 157.489972 85.226564 L 156.232037 72.849177 L 154.994298 61.074791 C 153.68443 59.62932 153.139133 57.941495 153.355521 56.00843 C 153.557483 54.092676 154.414379 52.479865 155.929094 51.167112 C 155.995453 51.034394 156.061812 50.898791 156.131056 50.766073 C 156.197415 50.613159 156.263774 50.471785 156.333018 50.336182 C 157.440924 49.848588 158.54306 49.404272 159.633655 49.000348 C 160.744446 48.579113 161.852352 48.201155 162.963143 47.866475 C 166.390727 46.689325 169.844277 45.673745 173.323794 44.816849 C 176.803311 43.957068 180.297254 43.183841 183.811393 42.497171 C 186.566732 41.873974 189.281679 41.201729 191.953348 40.480436 C 194.642328 39.756258 197.331308 39.04939 200.020288 38.36272 C 200.372279 38.429079 200.735811 38.478126 201.105113 38.512748 C 201.491726 38.547371 201.81775 38.631041 202.088956 38.763758 L 203.750815 39.395611 C 204.019136 39.597573 204.290342 39.822616 204.558663 40.076512 C 204.844295 40.31021 205.121272 40.529484 205.389593 40.731446 C 205.744469 41.839351 205.986823 42.932832 206.122426 44.009001 C 206.255144 45.067859 206.223407 46.109406 206.021445 47.133642 L 200.851218 48.697405 C 199.743312 49.03497 198.583473 49.378305 197.374586 49.730296 C 196.180125 50.067861 194.994319 50.402541 193.820054 50.740106 C 193.548848 50.890135 193.349771 50.968035 193.214168 50.968035 C 191.9043 51.302715 190.366504 51.732605 188.600779 52.251936 C 186.852364 52.774152 185.095295 53.293483 183.332455 53.815699 C 181.584041 54.320604 180.086637 54.782232 178.843128 55.200582 C 177.61693 55.604506 176.861015 55.872827 176.575383 56.00843 C 174.92795 56.562383 173.271861 57.150958 171.610002 57.774155 C 169.962569 58.394467 168.349758 59.049401 166.768684 59.738957 L 166.566722 59.940919 C 166.633081 60.278484 166.719636 60.849748 166.817732 61.654711 C 166.918713 62.445248 167.019694 63.183852 167.120675 63.873408 C 167.238967 64.562964 167.296671 65.00728 167.296671 65.209242 C 170.187613 63.965733 173.064129 62.748191 175.920449 61.55373 C 178.776769 60.344843 181.685022 59.185004 184.642323 58.077098 C 186.289756 57.673174 187.9545 57.243283 189.63367 56.790311 C 191.330151 56.337339 193.003551 55.872827 194.650984 55.402544 L 195.986818 55.076519 C 196.610015 54.940916 197.213016 54.857246 197.801591 54.822624 C 198.390166 54.790887 198.996052 54.738954 199.616364 54.672595 C 200.929117 54.606236 202.163971 54.698562 203.32381 54.949572 C 204.50096 55.186156 205.43287 55.916104 206.122426 57.142302 C 206.255144 57.295216 206.338814 57.43659 206.373436 57.572193 C 206.408058 57.704911 206.457106 57.840514 206.523465 57.976117 C 206.659068 58.178079 206.760049 58.385811 206.826408 58.605084 C 206.895652 58.807046 206.970667 59.009008 207.054337 59.21097 C 207.120696 59.277329 207.18994 59.311951 207.256299 59.311951 C 208.214176 59.799545 208.794095 60.665097 208.996057 61.908606 C 209.212445 62.866483 209.062416 63.850326 208.5402 64.857251 C 208.020869 65.84975 207.282265 66.588354 206.324388 67.075948 C 205.213597 67.546231 204.08838 67.840519 202.945852 67.958811 C 201.81775 68.059792 200.675222 68.244443 199.515383 68.512764 C 198.271874 68.714726 197.011054 68.942655 195.735808 69.193665 C 194.457677 69.427363 193.205513 69.715881 191.979315 70.050561 C 189.492297 70.740117 187.019704 71.487376 184.567308 72.295224 C 182.129338 73.082876 179.708679 73.991705 177.305331 75.015941 C 175.793501 75.639138 174.330719 76.294072 172.91987 76.983628 C 171.509021 77.673184 170.080861 78.394477 168.63539 79.150392 L 169.238391 85.858416 C 169.238391 85.924775 169.238391 85.973823 169.238391 86.008445 C 169.238391 86.043067 169.238391 86.126737 169.238391 86.259455 L 169.567301 86.057493 C 170.72714 85.50354 171.878323 85.007291 173.020851 84.57163 C 174.163379 84.118658 175.279941 83.654145 176.373421 83.183862 L 185.147228 79.756278 C 185.903143 79.421598 186.676369 79.118655 187.466906 78.847449 C 188.271869 78.561817 189.05375 78.284841 189.809665 78.01652 C 191.038749 77.528926 192.273602 77.067298 193.517111 76.631637 C 194.76062 76.17578 195.995474 75.740119 197.221672 75.318884 L 201.255142 74.084031 C 201.809095 73.948427 202.365933 73.763776 202.919886 73.530078 C 203.473839 73.276182 204.019136 73.082876 204.558663 72.950158 C 206.558087 72.528923 208.196865 72.704918 209.474996 73.478144 C 210.750242 74.234059 211.768707 75.336195 212.524622 76.781666 C 213.280537 78.227137 213.843146 79.808211 214.212448 81.522003 C 214.599061 83.235795 214.826989 84.813984 214.893348 86.259455 C 214.962592 87.168284 214.801023 87.981903 214.41441 88.706081 C 214.045108 89.427374 213.548858 90.024604 212.928546 90.494887 Z M 187.945845 68.613745 C 186.36477 69.101339 184.760615 69.588933 183.130493 70.076527 C 181.517682 70.54681 179.919297 71.060371 178.341108 71.614324 C 177.296676 71.882645 176.281095 72.176932 175.288596 72.497186 C 174.298982 72.797244 173.315139 73.082876 172.339951 73.354082 C 172.137989 74.528347 171.592691 75.49488 170.701173 76.250795 C 173.240124 74.940927 175.836779 73.772432 178.491137 72.748196 C 181.145495 71.706649 183.742149 70.673758 186.2811 69.646636 C 186.835053 69.378315 187.423628 69.135961 188.046826 68.916688 Z M 165.129907 104.335056 C 165.885822 104.4043 166.742718 104.418726 167.700595 104.386989 C 168.658472 104.352367 169.21531 104.303319 169.365339 104.234075 C 169.500942 104.234075 169.601923 104.202338 169.668282 104.133094 C 170.072206 103.934017 170.4819 103.7234 170.903135 103.504127 C 171.32437 103.302165 171.702328 103.100202 172.037008 102.89824 C 172.862167 102.479891 173.66713 102.067311 174.457667 101.663387 C 175.248204 101.245037 176.02143 100.832458 176.777345 100.428533 L 176.777345 100.200605 C 175.885827 100.555481 174.962572 100.907472 174.004695 101.259463 C 173.046818 101.597028 172.080285 101.931708 171.105097 102.269273 C 170.14722 102.621264 169.163377 102.98191 168.156452 103.354098 C 167.163953 103.740711 166.154143 104.066735 165.129907 104.335056 Z M 259.899142 63.873408 C 261.630245 66.478718 262.438093 69.537 262.319801 73.051139 C 262.21882 76.562393 261.791815 79.764934 261.033014 82.655876 C 260.346344 85.278497 259.345189 87.866496 258.035321 90.419873 C 256.739879 92.958824 254.991465 95.085195 252.790079 96.798987 C 249.278825 99.620685 245.161685 101.504703 240.438659 102.445269 C 235.732944 103.368523 231.21188 102.967485 226.875466 101.236382 C 222.671771 99.519704 219.001833 96.891313 215.856996 93.345437 C 212.732355 89.799561 210.689653 85.757435 209.731776 81.21906 C 209.512503 80.108269 209.336508 78.991708 209.20379 77.866491 C 209.068187 76.723963 209.001828 75.604516 209.001828 74.513921 C 209.068187 70.71415 209.547125 67.00959 210.438643 63.394469 C 211.344587 59.782234 212.966054 56.496024 215.303043 53.538723 C 216.884117 51.470055 218.724856 49.36965 220.825261 47.234623 C 222.925666 45.102481 225.043382 43.276167 227.17841 41.764337 C 229.177834 40.318866 231.243616 38.974376 233.378644 37.730867 C 234.402879 37.110555 235.530982 36.631617 236.75718 36.294051 C 238.000689 35.959372 239.244198 35.858391 240.487707 35.991108 C 241.598498 36.060353 242.455394 36.43831 243.058395 37.124981 C 243.681592 37.814537 243.99319 38.605074 243.99319 39.496592 C 244.345181 40.116904 244.521177 40.757412 244.521177 41.412346 C 244.521177 42.06728 244.48944 42.774147 244.420196 43.530062 C 244.353837 43.933986 244.319215 44.790882 244.319215 46.10075 C 244.319215 47.410618 244.319215 48.899367 244.319215 50.564111 C 244.319215 52.211544 244.336526 53.772422 244.371148 55.252515 C 244.402885 56.732608 244.420196 57.883791 244.420196 58.706065 L 244.723139 68.512764 C 244.723139 69.404282 244.74045 70.287145 244.775072 71.158466 C 244.806809 72.018248 244.858742 72.857833 244.925101 73.680107 C 244.925101 74.369663 244.942412 75.07653 244.974149 75.797823 C 245.008771 76.522001 244.959723 77.225983 244.82412 77.915539 C 244.757761 78.18386 244.564454 78.385822 244.2442 78.521425 C 243.941257 78.654143 243.655625 78.654143 243.387304 78.521425 C 243.035313 78.253104 242.824696 78.082879 242.758337 78.01652 C 242.622734 78.082879 242.487131 78.10019 242.354413 78.068453 C 242.21881 78.033831 242.086092 78.01652 241.950489 78.01652 C 241.260933 77.797247 240.689669 77.453911 240.236697 76.983628 C 239.78084 76.496034 239.388456 75.942081 239.050891 75.318884 C 238.848929 74.984204 238.690245 74.646639 238.571953 74.311959 C 238.470972 73.957083 238.35268 73.639714 238.219962 73.354082 L 237.917019 73.354082 L 237.917019 73.680107 C 238.251699 74.839946 238.799881 76.060373 239.555796 77.335619 C 240.311711 78.61375 241.454239 79.118655 242.98338 78.847449 C 243.739295 78.69742 244.270167 78.86476 244.57311 79.352354 C 244.876053 79.839948 244.942412 80.362164 244.775072 80.916117 C 244.604847 81.452759 244.143219 81.755702 243.387304 81.824946 C 242.077436 81.974975 240.781994 81.672032 239.503863 80.916117 C 238.243043 80.142891 237.337099 79.141737 236.783146 77.915539 C 236.09359 76.320039 235.698322 74.681261 235.597341 72.999206 C 235.49636 71.320036 235.404034 69.646636 235.320364 67.984778 L 234.714478 48.068437 C 234.512516 48.201155 234.301898 48.362725 234.085511 48.547376 C 233.883549 48.714716 233.646965 48.864745 233.378644 49.000348 C 229.86739 51.689328 227.109165 54.790887 225.109741 58.302141 C 223.110317 61.798969 221.699468 65.748769 220.874309 70.151542 C 220.80795 70.572777 220.756017 70.832442 220.72428 70.933423 C 220.689658 71.034404 220.672347 71.259447 220.672347 71.614324 C 220.605988 71.882645 220.571366 72.159621 220.571366 72.445253 C 220.571366 72.713574 220.571366 72.981895 220.571366 73.253101 C 220.505007 74.49661 220.571366 75.705497 220.773328 76.882647 C 220.97529 78.042486 221.252267 79.210981 221.607143 80.385246 C 222.56502 83.411791 224.001835 86.16713 225.917589 88.654148 C 227.850655 91.12674 230.505013 92.462574 233.883549 92.664536 C 234.085511 92.664536 234.301898 92.681847 234.538483 92.713584 C 234.789493 92.748206 235.017421 92.765517 235.219383 92.765517 C 239.218231 92.629914 242.631389 91.328702 245.453087 88.85611 C 246.612926 87.748204 247.504444 86.614331 248.127641 85.454492 C 249.102829 83.789748 249.723141 82.018253 249.991462 80.134236 C 250.259783 78.235793 250.360764 76.395053 250.294405 74.614902 C 250.228046 73.772432 250.161687 72.958814 250.092443 72.168277 C 250.026084 71.377739 249.824122 70.639136 249.489442 69.949579 C 248.799886 68.43775 248.60658 66.908609 248.909523 65.362156 C 249.209581 63.815704 250.127065 62.598162 251.656206 61.706644 C 253.101677 60.797815 254.613507 60.587197 256.194581 61.074791 C 257.77277 61.562385 259.007624 62.497181 259.899142 63.873408 Z M 236.783146 46.631622 C 236.295552 47.032661 235.741599 47.410618 235.118402 47.765494 C 235.254005 49.479286 235.421345 51.201734 235.623307 52.932837 C 235.839695 54.646629 236.018576 56.360421 236.151294 58.077098 L 236.682165 58.077098 C 236.612921 56.158459 236.581184 54.25136 236.581184 52.352917 C 236.581184 50.454474 236.647543 48.547376 236.783146 46.631622 Z M 249.362495 69.747617 C 249.362495 69.681259 249.345184 69.646636 249.310562 69.646636 C 249.278825 69.646636 249.261514 69.6149 249.261514 69.545655 C 249.261514 69.545655 249.278825 69.562966 249.310562 69.597589 C 249.345184 69.629325 249.362495 69.681259 249.362495 69.747617 Z M 249.489442 69.949579 C 249.402887 69.883221 249.362495 69.813976 249.362495 69.747617 C 249.362495 69.813976 249.379806 69.848598 249.411543 69.848598 C 249.463476 69.848598 249.489442 69.883221 249.489442 69.949579 Z M 249.489442 69.949579 " stroke="#ffffff" stroke-width="8.26144" stroke-opacity="1" stroke-miterlimit="4"/><g fill="#046fff" fill-opacity="1"><g transform="translate(39.37605, 193.840898)"><g><path d="M 3.21875 -73.8125 C 7.875 -76.238281 12.71875 -78.289062 17.75 -79.96875 C 22.78125 -81.644531 27.816406 -83.132812 32.859375 -84.4375 L 36.0625 -85.28125 C 38.957031 -85.832031 41.847656 -86.363281 44.734375 -86.875 C 47.617188 -87.394531 50.554688 -87.75 53.546875 -87.9375 C 54.191406 -88.03125 54.816406 -88.078125 55.421875 -88.078125 C 56.035156 -88.078125 56.664062 -88.078125 57.3125 -88.078125 C 54.613281 -87.421875 51.863281 -86.742188 49.0625 -86.046875 C 46.269531 -85.347656 43.523438 -84.671875 40.828125 -84.015625 C 36.066406 -82.992188 31.332031 -81.898438 26.625 -80.734375 C 21.925781 -79.566406 17.242188 -78.191406 12.578125 -76.609375 C 10.992188 -76.140625 9.429688 -75.601562 7.890625 -75 C 6.359375 -74.394531 4.800781 -73.71875 3.21875 -72.96875 C 2.84375 -73.15625 2.84375 -73.4375 3.21875 -73.8125 Z M 81.640625 -16.921875 C 81.453125 -16.078125 80.988281 -15.609375 80.25 -15.515625 C 75.113281 -14.585938 69.957031 -13.445312 64.78125 -12.09375 C 59.613281 -10.738281 54.5625 -9.175781 49.625 -7.40625 C 47.300781 -6.570312 44.945312 -5.734375 42.5625 -4.890625 C 40.1875 -4.054688 37.835938 -3.125 35.515625 -2.09375 L 35.375 -2.09375 C 35.28125 -2 35.140625 -1.925781 34.953125 -1.875 C 34.765625 -1.832031 34.578125 -1.765625 34.390625 -1.671875 C 33.640625 -1.304688 32.867188 -0.984375 32.078125 -0.703125 C 31.285156 -0.421875 30.519531 -0.09375 29.78125 0.28125 L 29.640625 0.421875 C 29.078125 0.796875 28.023438 1.257812 26.484375 1.8125 C 24.953125 2.375 23.507812 2.84375 22.15625 3.21875 C 20.800781 3.59375 20.125 3.78125 20.125 3.78125 C 20.125 3.78125 19.960938 3.800781 19.640625 3.84375 C 19.316406 3.894531 19.015625 3.921875 18.734375 3.921875 C 17.617188 4.097656 16.5 4.09375 15.375 3.90625 C 14.257812 3.726562 13.421875 3.03125 12.859375 1.8125 C 12.578125 1.257812 12.53125 0.609375 12.71875 -0.140625 C 10.945312 -0.890625 9.570312 -2.171875 8.59375 -3.984375 C 7.613281 -5.796875 7.453125 -7.585938 8.109375 -9.359375 C 7.734375 -11.785156 7.425781 -14.234375 7.1875 -16.703125 C 6.957031 -19.171875 6.753906 -21.617188 6.578125 -24.046875 L 4.890625 -40.828125 L 3.21875 -56.75 C 1.445312 -58.707031 0.703125 -60.992188 0.984375 -63.609375 C 1.253906 -66.210938 2.414062 -68.398438 4.46875 -70.171875 C 4.5625 -70.359375 4.65625 -70.546875 4.75 -70.734375 C 4.84375 -70.921875 4.9375 -71.109375 5.03125 -71.296875 C 6.519531 -71.953125 8.007812 -72.554688 9.5 -73.109375 C 11 -73.671875 12.492188 -74.1875 13.984375 -74.65625 C 18.640625 -76.238281 23.320312 -77.609375 28.03125 -78.765625 C 32.738281 -79.929688 37.46875 -80.984375 42.21875 -81.921875 C 45.945312 -82.753906 49.628906 -83.660156 53.265625 -84.640625 C 56.898438 -85.617188 60.535156 -86.578125 64.171875 -87.515625 C 64.628906 -87.421875 65.113281 -87.347656 65.625 -87.296875 C 66.144531 -87.253906 66.59375 -87.140625 66.96875 -86.953125 L 69.203125 -86.109375 C 69.578125 -85.835938 69.945312 -85.535156 70.3125 -85.203125 C 70.6875 -84.878906 71.0625 -84.578125 71.4375 -84.296875 C 71.90625 -82.804688 72.226562 -81.335938 72.40625 -79.890625 C 72.59375 -78.453125 72.550781 -77.03125 72.28125 -75.625 L 65.28125 -73.53125 C 63.789062 -73.0625 62.226562 -72.59375 60.59375 -72.125 C 58.96875 -71.664062 57.363281 -71.203125 55.78125 -70.734375 C 55.40625 -70.546875 55.125 -70.453125 54.9375 -70.453125 C 53.164062 -69.992188 51.09375 -69.410156 48.71875 -68.703125 C 46.34375 -68.003906 43.96875 -67.304688 41.59375 -66.609375 C 39.21875 -65.910156 37.1875 -65.28125 35.5 -64.71875 C 33.820312 -64.164062 32.800781 -63.796875 32.4375 -63.609375 C 30.195312 -62.859375 27.957031 -62.0625 25.71875 -61.21875 C 23.488281 -60.382812 21.300781 -59.503906 19.15625 -58.578125 L 18.875 -58.296875 C 18.96875 -57.828125 19.082031 -57.054688 19.21875 -55.984375 C 19.363281 -54.910156 19.503906 -53.90625 19.640625 -52.96875 C 19.773438 -52.039062 19.84375 -51.441406 19.84375 -51.171875 C 23.757812 -52.847656 27.648438 -54.5 31.515625 -56.125 C 35.390625 -57.757812 39.332031 -59.320312 43.34375 -60.8125 C 45.570312 -61.375 47.828125 -61.957031 50.109375 -62.5625 C 52.398438 -63.164062 54.660156 -63.796875 56.890625 -64.453125 L 58.71875 -64.859375 C 59.550781 -65.046875 60.363281 -65.160156 61.15625 -65.203125 C 61.945312 -65.253906 62.765625 -65.328125 63.609375 -65.421875 C 65.378906 -65.515625 67.054688 -65.398438 68.640625 -65.078125 C 70.222656 -64.753906 71.484375 -63.75 72.421875 -62.0625 C 72.597656 -61.882812 72.707031 -61.703125 72.75 -61.515625 C 72.800781 -61.328125 72.875 -61.140625 72.96875 -60.953125 C 73.15625 -60.671875 73.296875 -60.390625 73.390625 -60.109375 C 73.484375 -59.828125 73.578125 -59.550781 73.671875 -59.28125 C 73.765625 -59.1875 73.859375 -59.140625 73.953125 -59.140625 C 75.253906 -58.484375 76.046875 -57.316406 76.328125 -55.640625 C 76.609375 -54.335938 76.398438 -53.007812 75.703125 -51.65625 C 75.003906 -50.300781 74 -49.300781 72.6875 -48.65625 C 71.195312 -48 69.679688 -47.597656 68.140625 -47.453125 C 66.609375 -47.316406 65.050781 -47.0625 63.46875 -46.6875 C 61.789062 -46.40625 60.085938 -46.101562 58.359375 -45.78125 C 56.640625 -45.457031 54.941406 -45.0625 53.265625 -44.59375 C 49.910156 -43.664062 46.578125 -42.664062 43.265625 -41.59375 C 39.953125 -40.519531 36.664062 -39.285156 33.40625 -37.890625 C 31.363281 -37.046875 29.382812 -36.15625 27.46875 -35.21875 C 25.5625 -34.289062 23.628906 -33.316406 21.671875 -32.296875 L 22.5 -23.203125 C 22.5 -23.109375 22.5 -23.035156 22.5 -22.984375 C 22.5 -22.941406 22.5 -22.828125 22.5 -22.640625 L 22.921875 -22.921875 C 24.503906 -23.671875 26.066406 -24.347656 27.609375 -24.953125 C 29.148438 -25.554688 30.664062 -26.1875 32.15625 -26.84375 L 44.03125 -31.453125 C 45.0625 -31.921875 46.113281 -32.335938 47.1875 -32.703125 C 48.257812 -33.078125 49.304688 -33.453125 50.328125 -33.828125 C 52.003906 -34.484375 53.679688 -35.113281 55.359375 -35.71875 C 57.035156 -36.320312 58.710938 -36.90625 60.390625 -37.46875 L 65.84375 -39.140625 C 66.59375 -39.328125 67.335938 -39.582031 68.078125 -39.90625 C 68.828125 -40.238281 69.570312 -40.5 70.3125 -40.6875 C 73.019531 -41.238281 75.234375 -41 76.953125 -39.96875 C 78.679688 -38.945312 80.054688 -37.457031 81.078125 -35.5 C 82.109375 -33.550781 82.878906 -31.410156 83.390625 -29.078125 C 83.898438 -26.742188 84.203125 -24.597656 84.296875 -22.640625 C 84.390625 -21.429688 84.179688 -20.335938 83.671875 -19.359375 C 83.160156 -18.378906 82.484375 -17.566406 81.640625 -16.921875 Z M 47.8125 -46.546875 C 45.664062 -45.898438 43.5 -45.25 41.3125 -44.59375 C 39.125 -43.9375 36.957031 -43.238281 34.8125 -42.5 C 33.414062 -42.125 32.039062 -41.726562 30.6875 -41.3125 C 29.332031 -40.894531 28.003906 -40.5 26.703125 -40.125 C 26.421875 -38.539062 25.675781 -37.234375 24.46875 -36.203125 C 27.914062 -37.972656 31.429688 -39.554688 35.015625 -40.953125 C 38.609375 -42.359375 42.128906 -43.757812 45.578125 -45.15625 C 46.316406 -45.53125 47.109375 -45.859375 47.953125 -46.140625 Z M 16.921875 1.8125 C 17.941406 1.90625 19.101562 1.925781 20.40625 1.875 C 21.71875 1.832031 22.460938 1.765625 22.640625 1.671875 C 22.828125 1.671875 22.96875 1.625 23.0625 1.53125 C 23.625 1.257812 24.179688 0.984375 24.734375 0.703125 C 25.296875 0.421875 25.8125 0.140625 26.28125 -0.140625 C 27.394531 -0.703125 28.488281 -1.257812 29.5625 -1.8125 C 30.632812 -2.375 31.6875 -2.9375 32.71875 -3.5 L 32.71875 -3.78125 C 31.5 -3.3125 30.238281 -2.84375 28.9375 -2.375 C 27.632812 -1.90625 26.332031 -1.441406 25.03125 -0.984375 C 23.71875 -0.515625 22.382812 -0.0234375 21.03125 0.484375 C 19.6875 1.003906 18.316406 1.445312 16.921875 1.8125 Z M 16.921875 1.8125 "/></g></g></g><g fill="#046fff" fill-opacity="1"><g transform="translate(117.238463, 193.840898)"><g><path d="M 79.828125 -82.34375 C 79.640625 -81.78125 79.453125 -81.3125 79.265625 -80.9375 C 79.171875 -79.726562 78.9375 -78.515625 78.5625 -77.296875 C 78.1875 -76.085938 77.441406 -75.113281 76.328125 -74.375 C 75.859375 -74 75.160156 -73.71875 74.234375 -73.53125 C 73.859375 -73.15625 73.53125 -72.96875 73.25 -72.96875 C 69.707031 -72.320312 66.164062 -71.671875 62.625 -71.015625 C 59.082031 -70.359375 55.539062 -69.800781 52 -69.34375 C 52 -66.257812 51.972656 -63.179688 51.921875 -60.109375 C 51.878906 -57.035156 51.859375 -53.960938 51.859375 -50.890625 C 51.859375 -46.597656 51.878906 -42.332031 51.921875 -38.09375 C 51.972656 -33.851562 52 -29.585938 52 -25.296875 C 52.09375 -22.878906 52.1875 -20.4375 52.28125 -17.96875 C 52.375 -15.5 52.46875 -13.050781 52.5625 -10.625 C 52.46875 -8.945312 52.210938 -7.335938 51.796875 -5.796875 C 51.378906 -4.265625 50.515625 -2.984375 49.203125 -1.953125 L 49.203125 -2.234375 C 49.296875 -3.265625 49.34375 -4.265625 49.34375 -5.234375 C 49.34375 -6.210938 49.390625 -7.171875 49.484375 -8.109375 L 49.484375 -13.421875 C 49.203125 -12.210938 48.96875 -10.722656 48.78125 -8.953125 C 48.601562 -7.179688 48.28125 -5.59375 47.8125 -4.1875 C 47.34375 -2.695312 46.363281 -1.578125 44.875 -0.828125 C 43.382812 -0.0859375 41.894531 0.09375 40.40625 -0.28125 C 37.507812 -1.207031 35.59375 -3.046875 34.65625 -5.796875 C 33.726562 -8.546875 33.171875 -11.273438 32.984375 -13.984375 C 32.804688 -17.523438 32.738281 -21.113281 32.78125 -24.75 C 32.832031 -28.382812 32.898438 -31.972656 32.984375 -35.515625 C 33.171875 -39.054688 33.378906 -42.640625 33.609375 -46.265625 C 33.847656 -49.898438 34.015625 -53.535156 34.109375 -57.171875 L 34.390625 -63.328125 L 34.390625 -67.796875 C 33.453125 -67.796875 32.539062 -67.796875 31.65625 -67.796875 C 30.78125 -67.796875 29.875 -67.796875 28.9375 -67.796875 C 25.113281 -67.796875 21.382812 -67.9375 17.75 -68.21875 C 16.257812 -68.40625 14.789062 -68.660156 13.34375 -68.984375 C 11.90625 -69.316406 10.535156 -69.851562 9.234375 -70.59375 C 8.296875 -71.25 7.429688 -72.039062 6.640625 -72.96875 C 5.847656 -73.90625 5.21875 -74.929688 4.75 -76.046875 C 3.351562 -76.796875 2.304688 -77.9375 1.609375 -79.46875 C 0.910156 -81.007812 0.75 -82.617188 1.125 -84.296875 C 1.582031 -85.691406 2.441406 -86.945312 3.703125 -88.0625 C 4.960938 -89.1875 6.335938 -89.65625 7.828125 -89.46875 C 11.648438 -89.09375 15.472656 -88.789062 19.296875 -88.5625 C 23.117188 -88.332031 26.9375 -88.21875 30.75 -88.21875 C 30.75 -88.3125 30.769531 -88.378906 30.8125 -88.421875 C 30.863281 -88.460938 30.890625 -88.53125 30.890625 -88.625 C 23.347656 -89.09375 15.800781 -89.929688 8.25 -91.140625 C 8.0625 -91.140625 7.988281 -91.28125 8.03125 -91.5625 C 8.082031 -91.84375 8.203125 -91.9375 8.390625 -91.84375 C 18.171875 -91.289062 27.953125 -91.101562 37.734375 -91.28125 C 47.523438 -91.46875 57.269531 -91.984375 66.96875 -92.828125 C 67.707031 -93.015625 68.445312 -93.128906 69.1875 -93.171875 C 69.9375 -93.222656 70.640625 -93.296875 71.296875 -93.390625 C 71.671875 -93.390625 72.066406 -93.410156 72.484375 -93.453125 C 72.898438 -93.503906 73.296875 -93.484375 73.671875 -93.390625 C 74.691406 -93.566406 75.738281 -93.703125 76.8125 -93.796875 C 77.882812 -93.890625 78.9375 -93.984375 79.96875 -94.078125 C 80.613281 -94.171875 81.003906 -93.820312 81.140625 -93.03125 C 81.285156 -92.238281 80.988281 -91.75 80.25 -91.5625 C 79.78125 -91.5625 79.453125 -91.515625 79.265625 -91.421875 C 79.640625 -91.234375 79.921875 -91.050781 80.109375 -90.875 C 81.691406 -89.9375 82.457031 -88.460938 82.40625 -86.453125 C 82.363281 -84.453125 81.503906 -83.082031 79.828125 -82.34375 Z M 17.75 -71.578125 C 20.175781 -71.390625 22.644531 -71.390625 25.15625 -71.578125 C 22.363281 -71.859375 19.566406 -72.253906 16.765625 -72.765625 C 13.972656 -73.273438 11.226562 -73.953125 8.53125 -74.796875 C 9.644531 -73.765625 11.039062 -72.992188 12.71875 -72.484375 C 14.394531 -71.972656 16.070312 -71.671875 17.75 -71.578125 Z M 17.75 -71.578125 "/></g></g></g><g fill="#046fff" fill-opacity="1"><g transform="translate(192.305059, 193.840898)"><g><path d="M 3.21875 -73.8125 C 7.875 -76.238281 12.71875 -78.289062 17.75 -79.96875 C 22.78125 -81.644531 27.816406 -83.132812 32.859375 -84.4375 L 36.0625 -85.28125 C 38.957031 -85.832031 41.847656 -86.363281 44.734375 -86.875 C 47.617188 -87.394531 50.554688 -87.75 53.546875 -87.9375 C 54.191406 -88.03125 54.816406 -88.078125 55.421875 -88.078125 C 56.035156 -88.078125 56.664062 -88.078125 57.3125 -88.078125 C 54.613281 -87.421875 51.863281 -86.742188 49.0625 -86.046875 C 46.269531 -85.347656 43.523438 -84.671875 40.828125 -84.015625 C 36.066406 -82.992188 31.332031 -81.898438 26.625 -80.734375 C 21.925781 -79.566406 17.242188 -78.191406 12.578125 -76.609375 C 10.992188 -76.140625 9.429688 -75.601562 7.890625 -75 C 6.359375 -74.394531 4.800781 -73.71875 3.21875 -72.96875 C 2.84375 -73.15625 2.84375 -73.4375 3.21875 -73.8125 Z M 81.640625 -16.921875 C 81.453125 -16.078125 80.988281 -15.609375 80.25 -15.515625 C 75.113281 -14.585938 69.957031 -13.445312 64.78125 -12.09375 C 59.613281 -10.738281 54.5625 -9.175781 49.625 -7.40625 C 47.300781 -6.570312 44.945312 -5.734375 42.5625 -4.890625 C 40.1875 -4.054688 37.835938 -3.125 35.515625 -2.09375 L 35.375 -2.09375 C 35.28125 -2 35.140625 -1.925781 34.953125 -1.875 C 34.765625 -1.832031 34.578125 -1.765625 34.390625 -1.671875 C 33.640625 -1.304688 32.867188 -0.984375 32.078125 -0.703125 C 31.285156 -0.421875 30.519531 -0.09375 29.78125 0.28125 L 29.640625 0.421875 C 29.078125 0.796875 28.023438 1.257812 26.484375 1.8125 C 24.953125 2.375 23.507812 2.84375 22.15625 3.21875 C 20.800781 3.59375 20.125 3.78125 20.125 3.78125 C 20.125 3.78125 19.960938 3.800781 19.640625 3.84375 C 19.316406 3.894531 19.015625 3.921875 18.734375 3.921875 C 17.617188 4.097656 16.5 4.09375 15.375 3.90625 C 14.257812 3.726562 13.421875 3.03125 12.859375 1.8125 C 12.578125 1.257812 12.53125 0.609375 12.71875 -0.140625 C 10.945312 -0.890625 9.570312 -2.171875 8.59375 -3.984375 C 7.613281 -5.796875 7.453125 -7.585938 8.109375 -9.359375 C 7.734375 -11.785156 7.425781 -14.234375 7.1875 -16.703125 C 6.957031 -19.171875 6.753906 -21.617188 6.578125 -24.046875 L 4.890625 -40.828125 L 3.21875 -56.75 C 1.445312 -58.707031 0.703125 -60.992188 0.984375 -63.609375 C 1.253906 -66.210938 2.414062 -68.398438 4.46875 -70.171875 C 4.5625 -70.359375 4.65625 -70.546875 4.75 -70.734375 C 4.84375 -70.921875 4.9375 -71.109375 5.03125 -71.296875 C 6.519531 -71.953125 8.007812 -72.554688 9.5 -73.109375 C 11 -73.671875 12.492188 -74.1875 13.984375 -74.65625 C 18.640625 -76.238281 23.320312 -77.609375 28.03125 -78.765625 C 32.738281 -79.929688 37.46875 -80.984375 42.21875 -81.921875 C 45.945312 -82.753906 49.628906 -83.660156 53.265625 -84.640625 C 56.898438 -85.617188 60.535156 -86.578125 64.171875 -87.515625 C 64.628906 -87.421875 65.113281 -87.347656 65.625 -87.296875 C 66.144531 -87.253906 66.59375 -87.140625 66.96875 -86.953125 L 69.203125 -86.109375 C 69.578125 -85.835938 69.945312 -85.535156 70.3125 -85.203125 C 70.6875 -84.878906 71.0625 -84.578125 71.4375 -84.296875 C 71.90625 -82.804688 72.226562 -81.335938 72.40625 -79.890625 C 72.59375 -78.453125 72.550781 -77.03125 72.28125 -75.625 L 65.28125 -73.53125 C 63.789062 -73.0625 62.226562 -72.59375 60.59375 -72.125 C 58.96875 -71.664062 57.363281 -71.203125 55.78125 -70.734375 C 55.40625 -70.546875 55.125 -70.453125 54.9375 -70.453125 C 53.164062 -69.992188 51.09375 -69.410156 48.71875 -68.703125 C 46.34375 -68.003906 43.96875 -67.304688 41.59375 -66.609375 C 39.21875 -65.910156 37.1875 -65.28125 35.5 -64.71875 C 33.820312 -64.164062 32.800781 -63.796875 32.4375 -63.609375 C 30.195312 -62.859375 27.957031 -62.0625 25.71875 -61.21875 C 23.488281 -60.382812 21.300781 -59.503906 19.15625 -58.578125 L 18.875 -58.296875 C 18.96875 -57.828125 19.082031 -57.054688 19.21875 -55.984375 C 19.363281 -54.910156 19.503906 -53.90625 19.640625 -52.96875 C 19.773438 -52.039062 19.84375 -51.441406 19.84375 -51.171875 C 23.757812 -52.847656 27.648438 -54.5 31.515625 -56.125 C 35.390625 -57.757812 39.332031 -59.320312 43.34375 -60.8125 C 45.570312 -61.375 47.828125 -61.957031 50.109375 -62.5625 C 52.398438 -63.164062 54.660156 -63.796875 56.890625 -64.453125 L 58.71875 -64.859375 C 59.550781 -65.046875 60.363281 -65.160156 61.15625 -65.203125 C 61.945312 -65.253906 62.765625 -65.328125 63.609375 -65.421875 C 65.378906 -65.515625 67.054688 -65.398438 68.640625 -65.078125 C 70.222656 -64.753906 71.484375 -63.75 72.421875 -62.0625 C 72.597656 -61.882812 72.707031 -61.703125 72.75 -61.515625 C 72.800781 -61.328125 72.875 -61.140625 72.96875 -60.953125 C 73.15625 -60.671875 73.296875 -60.390625 73.390625 -60.109375 C 73.484375 -59.828125 73.578125 -59.550781 73.671875 -59.28125 C 73.765625 -59.1875 73.859375 -59.140625 73.953125 -59.140625 C 75.253906 -58.484375 76.046875 -57.316406 76.328125 -55.640625 C 76.609375 -54.335938 76.398438 -53.007812 75.703125 -51.65625 C 75.003906 -50.300781 74 -49.300781 72.6875 -48.65625 C 71.195312 -48 69.679688 -47.597656 68.140625 -47.453125 C 66.609375 -47.316406 65.050781 -47.0625 63.46875 -46.6875 C 61.789062 -46.40625 60.085938 -46.101562 58.359375 -45.78125 C 56.640625 -45.457031 54.941406 -45.0625 53.265625 -44.59375 C 49.910156 -43.664062 46.578125 -42.664062 43.265625 -41.59375 C 39.953125 -40.519531 36.664062 -39.285156 33.40625 -37.890625 C 31.363281 -37.046875 29.382812 -36.15625 27.46875 -35.21875 C 25.5625 -34.289062 23.628906 -33.316406 21.671875 -32.296875 L 22.5 -23.203125 C 22.5 -23.109375 22.5 -23.035156 22.5 -22.984375 C 22.5 -22.941406 22.5 -22.828125 22.5 -22.640625 L 22.921875 -22.921875 C 24.503906 -23.671875 26.066406 -24.347656 27.609375 -24.953125 C 29.148438 -25.554688 30.664062 -26.1875 32.15625 -26.84375 L 44.03125 -31.453125 C 45.0625 -31.921875 46.113281 -32.335938 47.1875 -32.703125 C 48.257812 -33.078125 49.304688 -33.453125 50.328125 -33.828125 C 52.003906 -34.484375 53.679688 -35.113281 55.359375 -35.71875 C 57.035156 -36.320312 58.710938 -36.90625 60.390625 -37.46875 L 65.84375 -39.140625 C 66.59375 -39.328125 67.335938 -39.582031 68.078125 -39.90625 C 68.828125 -40.238281 69.570312 -40.5 70.3125 -40.6875 C 73.019531 -41.238281 75.234375 -41 76.953125 -39.96875 C 78.679688 -38.945312 80.054688 -37.457031 81.078125 -35.5 C 82.109375 -33.550781 82.878906 -31.410156 83.390625 -29.078125 C 83.898438 -26.742188 84.203125 -24.597656 84.296875 -22.640625 C 84.390625 -21.429688 84.179688 -20.335938 83.671875 -19.359375 C 83.160156 -18.378906 82.484375 -17.566406 81.640625 -16.921875 Z M 47.8125 -46.546875 C 45.664062 -45.898438 43.5 -45.25 41.3125 -44.59375 C 39.125 -43.9375 36.957031 -43.238281 34.8125 -42.5 C 33.414062 -42.125 32.039062 -41.726562 30.6875 -41.3125 C 29.332031 -40.894531 28.003906 -40.5 26.703125 -40.125 C 26.421875 -38.539062 25.675781 -37.234375 24.46875 -36.203125 C 27.914062 -37.972656 31.429688 -39.554688 35.015625 -40.953125 C 38.609375 -42.359375 42.128906 -43.757812 45.578125 -45.15625 C 46.316406 -45.53125 47.109375 -45.859375 47.953125 -46.140625 Z M 16.921875 1.8125 C 17.941406 1.90625 19.101562 1.925781 20.40625 1.875 C 21.71875 1.832031 22.460938 1.765625 22.640625 1.671875 C 22.828125 1.671875 22.96875 1.625 23.0625 1.53125 C 23.625 1.257812 24.179688 0.984375 24.734375 0.703125 C 25.296875 0.421875 25.8125 0.140625 26.28125 -0.140625 C 27.394531 -0.703125 28.488281 -1.257812 29.5625 -1.8125 C 30.632812 -2.375 31.6875 -2.9375 32.71875 -3.5 L 32.71875 -3.78125 C 31.5 -3.3125 30.238281 -2.84375 28.9375 -2.375 C 27.632812 -1.90625 26.332031 -1.441406 25.03125 -0.984375 C 23.71875 -0.515625 22.382812 -0.0234375 21.03125 0.484375 C 19.6875 1.003906 18.316406 1.445312 16.921875 1.8125 Z M 16.921875 1.8125 "/></g></g></g><g fill="#046fff" fill-opacity="1"><g transform="translate(270.167468, 193.840898)"><g><path d="M 67.375 -52.984375 C 69.707031 -49.441406 70.800781 -45.289062 70.65625 -40.53125 C 70.519531 -35.78125 69.941406 -31.453125 68.921875 -27.546875 C 67.984375 -24.003906 66.628906 -20.503906 64.859375 -17.046875 C 63.085938 -13.597656 60.710938 -10.710938 57.734375 -8.390625 C 52.984375 -4.566406 47.414062 -2.023438 41.03125 -0.765625 C 34.644531 0.492188 28.515625 -0.0390625 22.640625 -2.375 C 16.960938 -4.707031 12 -8.269531 7.75 -13.0625 C 3.507812 -17.863281 0.738281 -23.34375 -0.5625 -29.5 C -0.84375 -30.988281 -1.070312 -32.5 -1.25 -34.03125 C -1.4375 -35.570312 -1.53125 -37.085938 -1.53125 -38.578125 C -1.4375 -43.703125 -0.785156 -48.710938 0.421875 -53.609375 C 1.628906 -58.503906 3.816406 -62.957031 6.984375 -66.96875 C 9.128906 -69.757812 11.625 -72.597656 14.46875 -75.484375 C 17.3125 -78.378906 20.175781 -80.851562 23.0625 -82.90625 C 25.769531 -84.851562 28.566406 -86.671875 31.453125 -88.359375 C 32.847656 -89.191406 34.382812 -89.84375 36.0625 -90.3125 C 37.738281 -90.78125 39.414062 -90.921875 41.09375 -90.734375 C 42.59375 -90.640625 43.757812 -90.125 44.59375 -89.1875 C 45.4375 -88.257812 45.859375 -87.1875 45.859375 -85.96875 C 46.316406 -85.132812 46.546875 -84.273438 46.546875 -83.390625 C 46.546875 -82.503906 46.5 -81.546875 46.40625 -80.515625 C 46.3125 -79.960938 46.265625 -78.800781 46.265625 -77.03125 C 46.265625 -75.257812 46.265625 -73.253906 46.265625 -71.015625 C 46.265625 -68.773438 46.285156 -66.65625 46.328125 -64.65625 C 46.378906 -62.65625 46.40625 -61.09375 46.40625 -59.96875 L 46.828125 -46.6875 C 46.828125 -45.476562 46.847656 -44.289062 46.890625 -43.125 C 46.941406 -41.957031 47.015625 -40.816406 47.109375 -39.703125 C 47.109375 -38.765625 47.128906 -37.804688 47.171875 -36.828125 C 47.222656 -35.859375 47.15625 -34.90625 46.96875 -33.96875 C 46.875 -33.59375 46.617188 -33.3125 46.203125 -33.125 C 45.785156 -32.945312 45.390625 -32.945312 45.015625 -33.125 C 44.546875 -33.5 44.265625 -33.734375 44.171875 -33.828125 C 43.984375 -33.734375 43.796875 -33.707031 43.609375 -33.75 C 43.429688 -33.800781 43.25 -33.828125 43.0625 -33.828125 C 42.125 -34.109375 41.351562 -34.570312 40.75 -35.21875 C 40.144531 -35.875 39.609375 -36.625 39.140625 -37.46875 C 38.859375 -37.9375 38.644531 -38.398438 38.5 -38.859375 C 38.363281 -39.328125 38.207031 -39.75 38.03125 -40.125 L 37.609375 -40.125 L 37.609375 -39.703125 C 38.066406 -38.117188 38.804688 -36.460938 39.828125 -34.734375 C 40.859375 -33.015625 42.398438 -32.34375 44.453125 -32.71875 C 45.484375 -32.894531 46.207031 -32.65625 46.625 -32 C 47.039062 -31.351562 47.128906 -30.65625 46.890625 -29.90625 C 46.660156 -29.164062 46.035156 -28.75 45.015625 -28.65625 C 43.242188 -28.46875 41.492188 -28.882812 39.765625 -29.90625 C 38.046875 -30.9375 36.8125 -32.289062 36.0625 -33.96875 C 35.132812 -36.113281 34.597656 -38.328125 34.453125 -40.609375 C 34.316406 -42.890625 34.203125 -45.148438 34.109375 -47.390625 L 33.265625 -74.375 C 32.992188 -74.1875 32.71875 -73.972656 32.4375 -73.734375 C 32.15625 -73.503906 31.828125 -73.296875 31.453125 -73.109375 C 26.703125 -69.472656 22.972656 -65.28125 20.265625 -60.53125 C 17.566406 -55.78125 15.65625 -50.421875 14.53125 -44.453125 C 14.445312 -43.890625 14.378906 -43.539062 14.328125 -43.40625 C 14.285156 -43.269531 14.265625 -42.96875 14.265625 -42.5 C 14.171875 -42.125 14.125 -41.75 14.125 -41.375 C 14.125 -41.007812 14.125 -40.640625 14.125 -40.265625 C 14.03125 -38.585938 14.117188 -36.953125 14.390625 -35.359375 C 14.671875 -33.773438 15.046875 -32.191406 15.515625 -30.609375 C 16.816406 -26.515625 18.769531 -22.789062 21.375 -19.4375 C 23.988281 -16.082031 27.582031 -14.265625 32.15625 -13.984375 C 32.4375 -13.984375 32.738281 -13.957031 33.0625 -13.90625 C 33.382812 -13.863281 33.6875 -13.84375 33.96875 -13.84375 C 39.375 -14.03125 43.988281 -15.800781 47.8125 -19.15625 C 49.394531 -20.644531 50.601562 -22.179688 51.4375 -23.765625 C 52.75 -26.003906 53.585938 -28.40625 53.953125 -30.96875 C 54.328125 -33.53125 54.46875 -36.019531 54.375 -38.4375 C 54.28125 -39.5625 54.1875 -40.660156 54.09375 -41.734375 C 54.007812 -42.804688 53.734375 -43.804688 53.265625 -44.734375 C 52.328125 -46.785156 52.066406 -48.859375 52.484375 -50.953125 C 52.910156 -53.046875 54.148438 -54.703125 56.203125 -55.921875 C 58.160156 -57.128906 60.207031 -57.40625 62.34375 -56.75 C 64.488281 -56.101562 66.164062 -54.847656 67.375 -52.984375 Z M 36.0625 -76.328125 C 35.414062 -75.765625 34.671875 -75.253906 33.828125 -74.796875 C 34.015625 -72.460938 34.25 -70.128906 34.53125 -67.796875 C 34.8125 -65.472656 35.046875 -63.144531 35.234375 -60.8125 L 35.921875 -60.8125 C 35.828125 -63.414062 35.78125 -66 35.78125 -68.5625 C 35.78125 -71.132812 35.875 -73.722656 36.0625 -76.328125 Z M 53.125 -45.015625 C 53.125 -45.109375 53.097656 -45.15625 53.046875 -45.15625 C 53.003906 -45.15625 52.984375 -45.203125 52.984375 -45.296875 C 52.984375 -45.296875 53.003906 -45.269531 53.046875 -45.21875 C 53.097656 -45.175781 53.125 -45.109375 53.125 -45.015625 Z M 53.265625 -44.734375 C 53.171875 -44.828125 53.125 -44.921875 53.125 -45.015625 C 53.125 -44.921875 53.144531 -44.875 53.1875 -44.875 C 53.238281 -44.875 53.265625 -44.828125 53.265625 -44.734375 Z M 53.265625 -44.734375 "/></g></g></g><g fill="#ffffff" fill-opacity="1"><g transform="translate(93.847184, 250.935293)"><g><path d="M 15.078125 0.53125 C 12.304688 0.53125 9.648438 0.09375 7.109375 -0.78125 C 4.578125 -1.664062 2.34375 -2.957031 0.40625 -4.65625 L 5.234375 -10.421875 C 6.785156 -9.203125 8.414062 -8.269531 10.125 -7.625 C 11.84375 -6.988281 13.597656 -6.671875 15.390625 -6.671875 C 16.578125 -6.671875 17.476562 -6.863281 18.09375 -7.25 C 18.707031 -7.632812 19.015625 -8.15625 19.015625 -8.8125 L 19.015625 -8.90625 C 19.015625 -9.5625 18.660156 -10.101562 17.953125 -10.53125 C 17.253906 -10.96875 15.832031 -11.4375 13.6875 -11.9375 C 12.019531 -12.332031 10.460938 -12.757812 9.015625 -13.21875 C 7.566406 -13.675781 6.320312 -14.269531 5.28125 -15 C 4.238281 -15.738281 3.410156 -16.648438 2.796875 -17.734375 C 2.179688 -18.828125 1.875 -20.160156 1.875 -21.734375 L 1.875 -21.828125 C 1.875 -23.285156 2.15625 -24.625 2.71875 -25.84375 C 3.289062 -27.070312 4.09375 -28.125 5.125 -29 C 6.15625 -29.882812 7.421875 -30.578125 8.921875 -31.078125 C 10.429688 -31.585938 12.125 -31.84375 14 -31.84375 C 16.65625 -31.84375 19.039062 -31.492188 21.15625 -30.796875 C 23.269531 -30.097656 25.179688 -29.0625 26.890625 -27.6875 L 22.546875 -21.5625 C 21.117188 -22.570312 19.644531 -23.335938 18.125 -23.859375 C 16.601562 -24.390625 15.15625 -24.65625 13.78125 -24.65625 C 12.738281 -24.65625 11.953125 -24.457031 11.421875 -24.0625 C 10.898438 -23.675781 10.640625 -23.203125 10.640625 -22.640625 L 10.640625 -22.546875 C 10.640625 -21.828125 11.003906 -21.257812 11.734375 -20.84375 C 12.472656 -20.425781 13.929688 -19.976562 16.109375 -19.5 C 19.648438 -18.726562 22.472656 -17.640625 24.578125 -16.234375 C 26.679688 -14.835938 27.734375 -12.675781 27.734375 -9.75 L 27.734375 -9.65625 C 27.734375 -8.082031 27.425781 -6.660156 26.8125 -5.390625 C 26.207031 -4.117188 25.351562 -3.039062 24.25 -2.15625 C 23.144531 -1.28125 21.804688 -0.613281 20.234375 -0.15625 C 18.671875 0.300781 16.953125 0.53125 15.078125 0.53125 Z M 15.078125 0.53125 "/></g></g></g><g fill="#ffffff" fill-opacity="1"><g transform="translate(123.013264, 250.935293)"><g><path d="M 2.78125 0 L 2.78125 -31.3125 L 16.234375 -31.3125 C 20.140625 -31.3125 23.28125 -30.34375 25.65625 -28.40625 C 28.03125 -26.46875 29.21875 -23.785156 29.21875 -20.359375 L 29.21875 -20.265625 C 29.21875 -18.410156 28.878906 -16.773438 28.203125 -15.359375 C 27.535156 -13.941406 26.601562 -12.765625 25.40625 -11.828125 C 24.21875 -10.890625 22.800781 -10.175781 21.15625 -9.6875 C 19.519531 -9.195312 17.734375 -8.953125 15.796875 -8.953125 L 11.453125 -8.953125 L 11.453125 0 Z M 11.453125 -15.75 L 15.609375 -15.75 C 17.128906 -15.75 18.335938 -16.128906 19.234375 -16.890625 C 20.128906 -17.648438 20.578125 -18.640625 20.578125 -19.859375 L 20.578125 -19.953125 C 20.578125 -21.296875 20.117188 -22.304688 19.203125 -22.984375 C 18.296875 -23.671875 17.082031 -24.015625 15.5625 -24.015625 L 11.453125 -24.015625 Z M 11.453125 -15.75 "/></g></g></g><g fill="#ffffff" fill-opacity="1"><g transform="translate(153.118743, 250.935293)"><g><path d="M 18.5625 0.625 C 16.144531 0.625 13.90625 0.203125 11.84375 -0.640625 C 9.789062 -1.492188 8.019531 -2.644531 6.53125 -4.09375 C 5.039062 -5.539062 3.867188 -7.253906 3.015625 -9.234375 C 2.171875 -11.222656 1.75 -13.332031 1.75 -15.5625 L 1.75 -15.65625 C 1.75 -17.894531 2.179688 -20.003906 3.046875 -21.984375 C 3.910156 -23.972656 5.085938 -25.703125 6.578125 -27.171875 C 8.066406 -28.648438 9.847656 -29.8125 11.921875 -30.65625 C 13.992188 -31.507812 16.238281 -31.9375 18.65625 -31.9375 C 21.070312 -31.9375 23.304688 -31.507812 25.359375 -30.65625 C 27.421875 -29.8125 29.195312 -28.664062 30.6875 -27.21875 C 32.175781 -25.769531 33.34375 -24.054688 34.1875 -22.078125 C 35.039062 -20.097656 35.46875 -17.988281 35.46875 -15.75 L 35.46875 -15.65625 C 35.46875 -13.414062 35.035156 -11.304688 34.171875 -9.328125 C 33.304688 -7.347656 32.128906 -5.617188 30.640625 -4.140625 C 29.148438 -2.660156 27.367188 -1.492188 25.296875 -0.640625 C 23.222656 0.203125 20.976562 0.625 18.5625 0.625 Z M 18.65625 -7.203125 C 19.84375 -7.203125 20.921875 -7.425781 21.890625 -7.875 C 22.859375 -8.320312 23.6875 -8.925781 24.375 -9.6875 C 25.0625 -10.445312 25.597656 -11.332031 25.984375 -12.34375 C 26.378906 -13.363281 26.578125 -14.4375 26.578125 -15.5625 L 26.578125 -15.65625 C 26.578125 -16.789062 26.378906 -17.867188 25.984375 -18.890625 C 25.597656 -19.921875 25.054688 -20.816406 24.359375 -21.578125 C 23.660156 -22.335938 22.816406 -22.945312 21.828125 -23.40625 C 20.847656 -23.875 19.757812 -24.109375 18.5625 -24.109375 C 17.375 -24.109375 16.285156 -23.882812 15.296875 -23.4375 C 14.316406 -22.988281 13.484375 -22.382812 12.796875 -21.625 C 12.109375 -20.863281 11.570312 -19.976562 11.1875 -18.96875 C 10.800781 -17.957031 10.609375 -16.882812 10.609375 -15.75 L 10.609375 -15.65625 C 10.609375 -14.519531 10.800781 -13.4375 11.1875 -12.40625 C 11.570312 -11.382812 12.113281 -10.492188 12.8125 -9.734375 C 13.519531 -8.972656 14.367188 -8.359375 15.359375 -7.890625 C 16.359375 -7.429688 17.457031 -7.203125 18.65625 -7.203125 Z M 18.65625 -7.203125 "/></g></g></g><g fill="#ffffff" fill-opacity="1"><g transform="translate(190.292073, 250.935293)"><g><path d="M 2.78125 0 L 2.78125 -31.3125 L 17.578125 -31.3125 C 19.960938 -31.3125 22 -31.015625 23.6875 -30.421875 C 25.375 -29.828125 26.738281 -29.003906 27.78125 -27.953125 C 28.707031 -27.035156 29.398438 -25.972656 29.859375 -24.765625 C 30.316406 -23.554688 30.546875 -22.191406 30.546875 -20.671875 L 30.546875 -20.578125 C 30.546875 -18.160156 29.957031 -16.15625 28.78125 -14.5625 C 27.601562 -12.96875 26.046875 -11.753906 24.109375 -10.921875 L 31.578125 0 L 21.609375 0 L 15.296875 -9.484375 L 11.453125 -9.484375 L 11.453125 0 Z M 11.453125 -16.28125 L 17.21875 -16.28125 C 18.6875 -16.28125 19.828125 -16.613281 20.640625 -17.28125 C 21.460938 -17.957031 21.875 -18.863281 21.875 -20 L 21.875 -20.078125 C 21.875 -21.335938 21.445312 -22.28125 20.59375 -22.90625 C 19.75 -23.53125 18.609375 -23.84375 17.171875 -23.84375 L 11.453125 -23.84375 Z M 11.453125 -16.28125 "/></g></g></g><g fill="#ffffff" fill-opacity="1"><g transform="translate(222.455278, 250.935293)"><g><path d="M 10.421875 0 L 10.421875 -23.703125 L 1.078125 -23.703125 L 1.078125 -31.3125 L 28.5 -31.3125 L 28.5 -23.703125 L 19.109375 -23.703125 L 19.109375 0 Z M 10.421875 0 "/></g></g></g><g fill="#ffffff" fill-opacity="1"><g transform="translate(251.979216, 250.935293)"><g><path d="M 15.078125 0.53125 C 12.304688 0.53125 9.648438 0.09375 7.109375 -0.78125 C 4.578125 -1.664062 2.34375 -2.957031 0.40625 -4.65625 L 5.234375 -10.421875 C 6.785156 -9.203125 8.414062 -8.269531 10.125 -7.625 C 11.84375 -6.988281 13.597656 -6.671875 15.390625 -6.671875 C 16.578125 -6.671875 17.476562 -6.863281 18.09375 -7.25 C 18.707031 -7.632812 19.015625 -8.15625 19.015625 -8.8125 L 19.015625 -8.90625 C 19.015625 -9.5625 18.660156 -10.101562 17.953125 -10.53125 C 17.253906 -10.96875 15.832031 -11.4375 13.6875 -11.9375 C 12.019531 -12.332031 10.460938 -12.757812 9.015625 -13.21875 C 7.566406 -13.675781 6.320312 -14.269531 5.28125 -15 C 4.238281 -15.738281 3.410156 -16.648438 2.796875 -17.734375 C 2.179688 -18.828125 1.875 -20.160156 1.875 -21.734375 L 1.875 -21.828125 C 1.875 -23.285156 2.15625 -24.625 2.71875 -25.84375 C 3.289062 -27.070312 4.09375 -28.125 5.125 -29 C 6.15625 -29.882812 7.421875 -30.578125 8.921875 -31.078125 C 10.429688 -31.585938 12.125 -31.84375 14 -31.84375 C 16.65625 -31.84375 19.039062 -31.492188 21.15625 -30.796875 C 23.269531 -30.097656 25.179688 -29.0625 26.890625 -27.6875 L 22.546875 -21.5625 C 21.117188 -22.570312 19.644531 -23.335938 18.125 -23.859375 C 16.601562 -24.390625 15.15625 -24.65625 13.78125 -24.65625 C 12.738281 -24.65625 11.953125 -24.457031 11.421875 -24.0625 C 10.898438 -23.675781 10.640625 -23.203125 10.640625 -22.640625 L 10.640625 -22.546875 C 10.640625 -21.828125 11.003906 -21.257812 11.734375 -20.84375 C 12.472656 -20.425781 13.929688 -19.976562 16.109375 -19.5 C 19.648438 -18.726562 22.472656 -17.640625 24.578125 -16.234375 C 26.679688 -14.835938 27.734375 -12.675781 27.734375 -9.75 L 27.734375 -9.65625 C 27.734375 -8.082031 27.425781 -6.660156 26.8125 -5.390625 C 26.207031 -4.117188 25.351562 -3.039062 24.25 -2.15625 C 23.144531 -1.28125 21.804688 -0.613281 20.234375 -0.15625 C 18.671875 0.300781 16.953125 0.53125 15.078125 0.53125 Z M 15.078125 0.53125 "/></g></g></g></svg>